<svg width="454" height="454" viewBox="0 0 454 454" fill="none" xmlns="http://www.w3.org/2000/svg">
<path fill-rule="evenodd" clip-rule="evenodd" d="M227 2C102.736 2 2 102.736 2 227C2 351.264 102.736 452 227 452C351.264 452 452 351.264 452 227C452 102.736 351.264 2 227 2ZM254.273 87L377 312H267.909L259.667 294.801L312.418 250.393L255.145 202.179L238.782 218.25L276.964 250.393L249.476 273.533L203.818 178.25L254.273 87ZM158.818 137L190.872 205.56L137.654 250.361L194.927 298.575L211.291 282.504L173.109 250.361L200.886 226.977L240.636 312H77L158.818 137Z" fill="white"/>
<rect x="1" y="1" width="452" height="452" stroke="black" stroke-opacity="0.05" stroke-width="2" stroke-dasharray="4 4"/>
</svg>
