<svg xmlns="http://www.w3.org/2000/svg" fill="currentColor" viewBox="0 0 450 450">
  <path fill="#006A82" fill-rule="evenodd" d="M225 0C100.736 0 0 100.736 0 225s100.736 225 225 225 225-100.736 225-225S349.264 0 225 0Zm27.273 85L375 310H265.909l-8.242-17.199 52.751-44.408-57.273-48.214-16.363 16.071 38.182 32.143-27.488 23.14-45.658-95.283L252.273 85Zm-95.455 50 32.054 68.56-53.218 44.801 57.273 48.214 16.364-16.071-38.182-32.143 27.777-23.384L238.636 310H75l81.818-175Z" class="path" clip-rule="evenodd"/>
</svg>
