<svg width="888" height="326" viewBox="0 0 888 326" fill="none" xmlns="http://www.w3.org/2000/svg">
<g clip-path="url(#clip0_232_725)">
<path d="M273.18 217.99C262.75 221.84 252.14 223.77 241.33 223.77C229.15 223.77 212.33 221.73 202.29 217.66C192.25 213.59 183.57 207.95 176.26 200.75C168.95 193.55 163.28 184.93 159.25 174.89C155.21 164.85 153.2 153.94 153.2 142.16C153.2 130.38 155.21 119.46 159.25 109.43C163.28 99.39 168.96 90.77 176.26 83.57C183.56 76.37 192.28 70.73 202.4 66.66C212.52 62.59 229.3 60.55 241.33 60.55C251.37 60.55 261.15 62.19 270.67 65.46C280.18 68.73 288.29 73.72 294.99 80.41L291.79 83.9C288.59 80.7 284.97 77.9 280.94 75.5C276.9 73.1 272.64 71.1 268.15 69.5C263.66 67.9 259.13 66.74 254.57 66.01C250 65.28 245.59 64.92 241.33 64.92C229.76 64.92 219.22 66.92 209.71 70.92C200.2 74.92 192.05 80.41 185.28 87.4C178.5 94.38 173.25 102.57 169.53 111.95C165.8 121.33 163.94 131.41 163.94 142.17C163.94 152.93 165.77 163.01 169.42 172.39C173.08 181.77 178.29 189.96 185.06 196.94C191.83 203.92 199.98 209.42 209.49 213.41C219 217.41 229.62 219.41 241.34 219.41C251.38 219.41 261.32 217.56 271.13 213.85C280.95 210.14 289.05 204.57 295.45 197.16L299.1 200.43C292.25 208.29 283.61 214.14 273.19 218L273.18 217.99Z" fill="#DEAB50"/>
<path d="M322.27 64.91H422.27V69.27H333V142.85H417.02V147.21H333V215.04H425.92V219.41H322.26V64.91H322.27Z" fill="#DEAB50"/>
<path d="M511.51 154.48L552.31 219.42H546.6L506.08 154.81C504.63 154.87 503.3 154.9 502.14 154.9H460.36V219.43H449.63V64.91H499.17C504.95 64.91 516.52 65.53 522.46 66.76C528.39 68 533.76 70.07 538.56 72.98C543.35 75.89 546.7 79.82 549.75 84.76C552.79 89.71 555.46 101.6 555.46 109.02C555.46 115.57 553.06 127.06 550.55 132.08C548.04 137.1 545.22 141.28 540.96 144.63C536.7 147.98 531.71 150.52 526.01 152.27C522.55 153.33 516.88 154.06 511.52 154.48H511.51ZM502.37 150.74C507.39 150.74 512.42 150.08 517.44 148.78C522.46 147.47 526.95 145.36 530.91 142.45C534.87 139.54 537.49 135.79 539.93 131.21C542.36 126.63 544.72 115.43 544.72 109.03C544.72 102.63 542.28 91.32 539.7 86.96C537.11 82.6 534.33 79.1 530.22 76.48C526.11 73.86 521.51 71.97 516.41 70.81C511.31 69.65 506.25 69.06 501.23 69.06H460.36V150.74H502.37Z" fill="#DEAB50"/>
<path d="M643.46 219.41H629.99L569.26 64.91H574.74L633.65 215.05H634.11L693.93 64.91H705.12L643.47 219.41H643.46Z" fill="#DEAB50"/>
<path d="M885.63 142.16C885.63 154.09 883.58 165.04 879.47 175C875.36 184.97 869.69 193.55 862.45 200.75C855.21 207.95 846.58 213.59 836.58 217.66C826.58 221.73 810.15 223.77 798.51 223.77C786.87 223.77 770.44 221.73 760.44 217.66C750.44 213.59 741.81 207.95 734.58 200.75C727.34 193.55 721.66 184.97 717.56 175C713.45 165.04 711.4 154.09 711.4 142.16C711.4 130.23 713.45 119.28 717.56 109.32C721.66 99.36 727.34 90.77 734.58 83.57C741.82 76.37 750.4 70.73 760.33 66.66C770.26 62.59 786.72 60.55 798.51 60.55C810.3 60.55 826.76 62.59 836.69 66.66C846.62 70.73 855.2 76.37 862.45 83.57C869.69 90.77 875.36 99.36 879.47 109.32C883.57 119.29 885.63 130.24 885.63 142.16ZM875.1 142.16C875.1 131.4 873.23 121.32 869.5 111.94C865.76 102.56 860.5 94.37 853.71 87.39C846.92 80.41 838.82 74.92 829.41 70.91C820 66.91 809.7 64.91 798.5 64.91C787.3 64.91 777 66.91 767.59 70.91C758.19 74.91 750.09 80.4 743.29 87.39C736.5 94.37 731.23 102.56 727.5 111.94C723.77 121.32 721.9 131.4 721.9 142.16C721.9 152.92 723.73 163 727.39 172.38C731.05 181.76 736.24 189.95 742.96 196.93C749.68 203.91 757.74 209.41 767.15 213.41C776.56 217.41 787 219.41 798.5 219.41C810 219.41 820.45 217.41 829.85 213.41C839.26 209.41 847.32 203.92 854.04 196.93C860.76 189.94 865.94 181.76 869.61 172.38C873.27 163 875.09 152.93 875.09 142.16H875.1Z" fill="#DEAB50"/>
<path d="M128.03 182.84H127.98L129.87 187.23H129.93L145.58 223.36H156.77L89.41 68.86H77.31L7.21 223.36H12.69L80.28 71.92L128.03 182.84Z" fill="#DEAB50"/>
<path d="M622.11 80.58L655.99 4.23001H676.82L659.47 42.02L661.96 43.17L681.11 1.48001H654.21L619.6 79.47L622.11 80.58Z" fill="#DEAB50"/>
<path d="M632.23 134.88L637.14 124.45L632.25 134.88H634.95L700.88 0L691.92 0.11L681.99 22.64L631.57 129.78L578.79 3.86H640.26L614.67 61.45L617.18 62.56L644.49 1.11H574.65L630.73 134.88H632.23Z" fill="#DEAB50"/>
<path d="M35.64 311.21H34.45L29.84 300.74C29.3 299.49 29.13 299.22 28.43 299.22H8.58C7.87 299.22 7.75 299.33 7.2 300.58L2.72 311.21H1.53L18.12 273.25H18.99L35.64 311.21ZM28.05 298.63C28.72 298.63 28.75 298.34 28.33 297.32L19.03 276.21C18.82 275.79 18.6 275.53 18.28 275.53C17.96 275.53 17.68 275.69 17.41 276.34L8.56 297.35C8.15 298.34 8.18 298.63 8.85 298.63H28.04H28.05Z" fill="#C6C6C6"/>
<path d="M37.17 312.21H33.79L28.92 301.14L28.98 301.11L28.92 301.14C28.8 300.87 28.6 300.4 28.48 300.22C28.47 300.22 28.45 300.22 28.43 300.22H8.58C8.58 300.22 8.51 300.22 8.48 300.22C8.37 300.41 8.19 300.82 8.12 300.97L3.39 312.2H0L17.47 272.24H19.65L37.17 312.2V312.21ZM9.53 297.63H27.37L18.25 276.93L9.53 297.63Z" fill="#C6C6C6"/>
<path d="M62.1 285.94C64.38 285.72 66.76 286.1 68.39 286.54V287.73C66.76 286.97 65.14 286.37 62.26 286.54C59.44 286.7 57.38 287.62 55.59 289.52C53.64 291.64 53.26 293.59 53.26 295.86V311.21H52.18V286.54H53.26V289.9C53.26 290.44 53.26 290.66 53.37 290.77C53.48 290.88 53.64 290.82 53.86 290.61C54.24 290.23 54.35 290.01 54.78 289.53C56.68 287.36 59.17 286.22 62.1 285.95V285.94Z" fill="#C6C6C6"/>
<path d="M54.27 312.21H51.19V285.54H54.27V288.6C56.25 286.47 58.85 285.24 62.02 284.94C64.87 284.67 67.61 285.29 68.66 285.57L69.4 285.77V289.3L67.98 288.64C66.49 287.95 65.04 287.38 62.33 287.54C59.75 287.69 57.95 288.49 56.33 290.21C54.62 292.07 54.27 293.75 54.27 295.87V312.22V312.21Z" fill="#C6C6C6"/>
<path d="M106.14 286.54H107.22V324.5H106.14V309.04C106.14 308.5 106.03 308.23 105.76 308.23C105.43 308.23 105.11 308.45 104.57 308.83C102.45 310.29 99.8 311.81 95.84 311.81C88.46 311.81 83.53 306.66 83.53 298.96C83.53 291.26 88.46 285.94 95.84 285.94C99.8 285.94 102.46 287.46 104.57 288.92C105.11 289.3 105.44 289.52 105.76 289.52C106.03 289.52 106.14 289.25 106.14 288.71V286.54ZM106.14 304.33V293.43C106.14 291.59 105.54 290.61 104.46 289.69C102.62 288.17 99.53 286.54 96.11 286.54C89.06 286.54 84.72 291.58 84.72 298.96C84.72 306.34 89.06 311.22 96.11 311.22C99.53 311.22 102.62 309.59 104.46 308.07C105.54 307.15 106.14 306.17 106.14 304.33Z" fill="#C6C6C6"/>
<path d="M108.22 325.5H105.14V309.65C102.88 311.22 100.01 312.81 95.84 312.81C87.88 312.81 82.53 307.24 82.53 298.96C82.53 290.68 88 284.94 95.84 284.94C100.01 284.94 102.88 286.54 105.14 288.1V285.54H108.22V325.5ZM96.1 287.54C89.79 287.54 85.71 292.02 85.71 298.96C85.71 305.9 89.69 310.22 96.1 310.22C99.97 310.22 102.98 307.99 103.82 307.3C104.67 306.58 105.14 305.89 105.14 304.33V293.43C105.14 291.87 104.67 291.18 103.81 290.45C102.99 289.78 99.98 287.54 96.11 287.54H96.1Z" fill="#C6C6C6"/>
<path d="M143.99 286.54H145.07V311.21H143.99V308.93C143.99 308.39 143.88 308.12 143.61 308.12C143.28 308.12 142.96 308.34 142.42 308.72C140.3 310.18 137.65 311.81 133.69 311.81C130 311.81 124.15 309.31 124.15 303.4V286.53H125.23V303.12C125.23 308.92 130.54 311.2 133.96 311.2C137.38 311.2 140.47 309.46 142.31 307.95C143.39 307.03 143.99 306.05 143.99 304.21V286.53V286.54Z" fill="#C6C6C6"/>
<path d="M133.69 312.81C129.44 312.81 123.15 309.82 123.15 303.4V285.53H126.23V303.12C126.23 308.28 130.97 310.2 133.96 310.2C137.71 310.2 140.81 307.88 141.68 307.17C142.53 306.45 143 305.76 143 304.2V285.52H146.08V312.19H143V309.52C140.54 311.22 137.72 312.79 133.7 312.79L133.69 312.81Z" fill="#C6C6C6"/>
<path d="M163.03 279.87C163.03 279.06 163.68 278.51 164.6 278.51C165.52 278.51 166.17 279.05 166.17 279.87C166.17 280.69 165.52 281.23 164.6 281.23C163.68 281.23 163.03 280.69 163.03 279.87ZM164.06 286.54H165.14V311.21H164.06V286.54Z" fill="#C6C6C6"/>
<path d="M166.14 312.21H163.06V285.54H166.14V312.21ZM164.6 282.22C163.11 282.22 162.03 281.23 162.03 279.86C162.03 278.49 163.11 277.5 164.6 277.5C166.09 277.5 167.17 278.49 167.17 279.86C167.17 281.23 166.09 282.22 164.6 282.22ZM164.6 279.51C164.39 279.51 164.03 279.56 164.03 279.87C164.03 280.18 164.39 280.23 164.6 280.23C164.81 280.23 165.17 280.18 165.17 279.87C165.17 279.56 164.81 279.51 164.6 279.51Z" fill="#C6C6C6"/>
<path d="M200.66 309.04V309.64C199.41 311.05 196.97 311.81 195.35 311.81C191.55 311.81 187.22 310.18 187.22 303.02V287.94C187.22 287.4 186.95 287.13 186.41 287.13H182.78V286.53H183.86C186.79 286.53 187.6 284.96 187.6 280.84H188.3V285.72C188.3 286.26 188.57 286.53 189.11 286.53H200.12V287.13H188.3V303.02C188.3 309.74 191.93 311.21 195.19 311.21C197.03 311.21 199.42 310.34 200.67 309.04H200.66Z" fill="#C6C6C6"/>
<path d="M195.35 312.81C191.94 312.81 186.22 311.54 186.22 303.02V288.13H181.77V285.53H183.85C185.71 285.53 186.59 285.07 186.59 280.84V279.84H189.29V285.53H201.11V288.13H189.29V303.02C189.29 307.86 191.22 310.21 195.18 310.21C196.85 310.21 198.93 309.39 199.94 308.35L201.66 306.55V310.01L201.41 310.29C199.95 311.94 197.26 312.8 195.35 312.8V312.81ZM187.25 286.3C187.25 286.3 187.28 286.32 187.3 286.32V286.24C187.3 286.24 187.27 286.28 187.25 286.3Z" fill="#C6C6C6"/>
<path d="M229.24 311.21C235.42 311.21 238.51 307.68 239.71 303.73H240.85C239.44 308.07 235.97 311.81 229.24 311.81C221.27 311.81 216.6 306.5 216.6 298.85C216.6 291.2 221.59 285.94 228.86 285.94C236.13 285.94 241.12 291.25 241.12 298.85H218.34C218.24 298.85 218.02 298.85 217.85 299.01C217.63 299.23 217.73 299.99 217.74 300.2C218.24 306.52 222.29 311.21 229.24 311.21ZM217.73 297.66C217.73 297.91 217.78 298.25 218.34 298.25H239.38C240.09 298.25 239.98 297.76 239.98 297.55C239.46 291.25 235.16 286.54 228.86 286.54C222.56 286.54 218.21 291.31 217.73 297.66Z" fill="#C6C6C6"/>
<path d="M229.24 312.81C220.96 312.81 215.6 307.33 215.6 298.85C215.6 290.37 221.05 284.94 228.86 284.94C236.67 284.94 242.12 290.66 242.12 298.85V299.85H218.72C218.72 299.92 218.72 299.97 218.73 300.01V300.16C219.24 306.37 223.26 310.22 229.24 310.22C235.41 310.22 237.82 306.54 238.75 303.45L238.96 302.74H242.22L241.79 304.05C240.72 307.33 237.68 312.82 229.23 312.82L229.24 312.81ZM217.73 297.66L218.73 297.69L217.73 297.66ZM218.77 297.25H238.94C238.34 291.46 234.31 287.54 228.85 287.54C223.39 287.54 219.4 291.42 218.77 297.25Z" fill="#C6C6C6"/>
<path d="M274.96 309.04V309.64C273.71 311.05 271.27 311.81 269.65 311.81C265.85 311.81 261.52 310.18 261.52 303.02V287.94C261.52 287.4 261.25 287.13 260.71 287.13H257.08V286.53H258.16C261.09 286.53 261.9 284.96 261.9 280.84H262.6V285.72C262.6 286.26 262.87 286.53 263.41 286.53H274.42V287.13H262.6V303.02C262.6 309.74 266.23 311.21 269.49 311.21C271.33 311.21 273.72 310.34 274.97 309.04H274.96Z" fill="#C6C6C6"/>
<path d="M269.65 312.81C266.24 312.81 260.52 311.54 260.52 303.02V288.13H256.07V285.53H258.15C260.01 285.53 260.89 285.07 260.89 280.84V279.84H263.59V285.53H275.41V288.13H263.59V303.02C263.59 307.86 265.52 310.21 269.48 310.21C271.15 310.21 273.23 309.39 274.24 308.35L275.96 306.55V310.01L275.71 310.29C274.25 311.94 271.56 312.8 269.65 312.8V312.81ZM261.55 286.3C261.55 286.3 261.58 286.32 261.6 286.32V286.24C261.6 286.24 261.57 286.28 261.55 286.3Z" fill="#C6C6C6"/>
<path d="M311.08 286.54H312.16V311.21H311.08V308.93C311.08 308.39 310.97 308.12 310.7 308.12C310.37 308.12 310.05 308.34 309.51 308.72C307.39 310.18 304.74 311.81 300.78 311.81C297.09 311.81 291.24 309.31 291.24 303.4V286.53H292.32V303.12C292.32 308.92 297.63 311.2 301.05 311.2C304.47 311.2 307.56 309.46 309.4 307.95C310.48 307.03 311.08 306.05 311.08 304.21V286.53V286.54Z" fill="#C6C6C6"/>
<path d="M300.77 312.81C296.52 312.81 290.23 309.82 290.23 303.4V285.53H293.31V303.12C293.31 308.28 298.05 310.2 301.04 310.2C304.79 310.2 307.89 307.88 308.76 307.17C309.61 306.45 310.08 305.76 310.08 304.2V285.52H313.16V312.19H310.08V309.52C307.62 311.22 304.8 312.79 300.78 312.79L300.77 312.81Z" fill="#C6C6C6"/>
<path d="M339.98 285.94C342.26 285.72 344.64 286.1 346.27 286.54V287.73C344.64 286.97 343.02 286.37 340.14 286.54C337.32 286.7 335.26 287.62 333.47 289.52C331.52 291.64 331.14 293.59 331.14 295.86V311.21H330.06V286.54H331.14V289.9C331.14 290.44 331.14 290.66 331.25 290.77C331.36 290.88 331.52 290.82 331.74 290.61C332.12 290.23 332.23 290.01 332.66 289.53C334.56 287.36 337.05 286.22 339.98 285.95V285.94Z" fill="#C6C6C6"/>
<path d="M332.14 312.21H329.06V285.54H332.14V288.6C334.12 286.47 336.72 285.24 339.89 284.94C342.74 284.67 345.48 285.29 346.53 285.57L347.27 285.77V289.3L345.85 288.64C344.36 287.95 342.9 287.38 340.2 287.54C337.62 287.69 335.82 288.49 334.2 290.21C332.49 292.07 332.14 293.75 332.14 295.87V312.22V312.21Z" fill="#C6C6C6"/>
<path d="M381.69 293.64V311.21H380.61V308.5C380.61 307.96 380.5 307.8 380.23 307.69C379.96 307.58 379.58 307.74 379.04 308.29C377.14 310.13 374.05 311.82 369.87 311.82C363.53 311.82 359.57 309.32 359.57 304.99C359.57 300.27 363.75 298.1 370.25 297.34C376.43 296.63 380.61 296.15 380.61 293.71C380.61 289.81 377.41 286.55 371.45 286.55C366.79 286.55 362.5 288.45 361.85 294.85H360.77C361.42 288.02 366.9 285.96 371.45 285.96C377.36 285.96 381.7 288.94 381.7 293.66L381.69 293.64ZM380.61 303.67V296.35C380.61 296.08 380.56 295.97 380.45 295.92C380.34 295.87 380.07 295.97 379.96 296.03C378.17 296.9 375.03 297.39 370.47 297.93C364.29 298.69 360.76 300.59 360.76 304.98C360.76 308.99 364.12 311.22 370.14 311.22C373.77 311.22 377.08 309.48 378.93 307.53C379.91 306.45 380.61 305.58 380.61 303.68V303.67Z" fill="#C6C6C6"/>
<path d="M369.86 312.81C362.89 312.81 358.56 309.81 358.56 304.98C358.56 300.15 362.34 297.25 370.13 296.34C375 295.78 379.6 295.26 379.6 293.7C379.6 289.96 376.4 287.54 371.44 287.54C366.23 287.54 363.34 290.03 362.84 294.94L362.75 295.84H359.66L359.76 294.75C360.45 287.52 366.24 284.95 371.44 284.95C378.06 284.95 382.69 288.53 382.69 293.65V312.22H379.61V309.13C378.08 310.57 374.89 312.82 369.87 312.82L369.86 312.81ZM379.6 297.26C377.62 297.98 374.71 298.43 370.58 298.92C364.4 299.68 361.75 301.49 361.75 304.98C361.75 309.31 366.31 310.22 370.13 310.22C373.73 310.22 376.72 308.4 378.19 306.85C379.08 305.86 379.6 305.21 379.6 303.69V297.27V297.26Z" fill="#C6C6C6"/>
<path d="M460.1 311.21H458.64L453.4 305.37C449.93 309.68 445 311.8 440.31 311.8C431.42 311.8 426.97 306.59 426.97 300.36C426.97 292.92 433.21 290.06 437.97 288.17C435.51 285.51 432.72 282.94 432.72 279.59C432.72 275.79 435.65 272.65 440.53 272.65C445.41 272.65 448.39 275.58 448.39 279.59C448.39 283.82 445.24 286.1 439.66 288.21L439.53 288.26C439.69 288.43 439.84 288.59 439.98 288.75L453.48 303.81C455.69 300.4 457.01 295.89 457.01 290.48H458.09C458.09 296.38 456.52 301.03 454.07 304.47L460.1 311.2V311.21ZM440.31 311.21C445.26 311.21 449.76 308.92 452.84 304.75L438.43 288.69C433.07 290.81 428.1 293.71 428.1 300.31C428.1 305.57 431.57 311.21 440.3 311.21H440.31ZM440.53 273.25C436.25 273.25 433.81 276.4 433.81 279.59C433.81 282.52 436.78 285.37 439.05 287.74C445.43 285.21 447.31 283.37 447.31 279.59C447.31 275.81 444.92 273.24 440.53 273.24V273.25Z" fill="#C6C6C6"/>
<path d="M440.31 312.81C431.6 312.81 425.97 307.93 425.97 300.37C425.97 292.81 432.05 289.54 436.24 287.8C433.98 285.4 431.72 282.89 431.72 279.6C431.72 275 435.42 271.66 440.53 271.66C445.64 271.66 449.39 274.93 449.39 279.6C449.39 284.27 445.62 286.88 441.25 288.67L453.32 302.14C455.08 298.91 456.01 294.91 456.01 290.49V289.49H459.09V290.49C459.09 295.84 457.8 300.63 455.34 304.4L462.34 312.21H458.19L453.42 306.89C449.98 310.66 445.26 312.81 440.31 312.81ZM438.16 289.88C433.38 291.85 429.11 294.54 429.11 300.31C429.11 304.88 432.04 310.21 440.31 310.21C444.73 310.21 448.69 308.29 451.54 304.79L438.16 289.87V289.88ZM440.53 274.25C436.77 274.25 434.81 276.94 434.81 279.59C434.81 281.91 437.18 284.36 439.27 286.53L439.3 286.56C445.32 284.1 446.31 282.45 446.31 279.59C446.31 276.19 444.2 274.24 440.53 274.24V274.25Z" fill="#C6C6C6"/>
<path d="M539.55 298.09C537.92 306.39 531.63 311.81 522.63 311.81C511.57 311.81 503.97 303.68 503.97 292.18C503.97 280.68 511.56 272.66 522.63 272.66C531.63 272.66 538.09 278.35 539.55 286.87H538.41C536.95 279.01 530.82 273.26 522.63 273.26C512.38 273.26 505.11 281.77 505.11 292.19C505.11 302.61 512.38 311.22 522.63 311.22C530.82 311.22 536.78 305.69 538.41 298.1H539.55V298.09Z" fill="#C6C6C6"/>
<path d="M522.63 312.81C511.06 312.81 502.97 304.33 502.97 292.18C502.97 280.03 511.05 271.66 522.63 271.66C531.94 271.66 538.96 277.56 540.54 286.7L540.74 287.87H537.58L537.43 287.05C536 279.4 530.06 274.26 522.63 274.26C513.21 274.26 506.11 281.97 506.11 292.19C506.11 302.41 513.21 310.22 522.63 310.22C530.02 310.22 535.83 305.38 537.43 297.89L537.6 297.1H540.76L540.53 298.29C538.77 307.25 531.91 312.82 522.63 312.82V312.81Z" fill="#C6C6C6"/>
<path d="M556.85 298.85C556.85 291.26 562 285.94 569.38 285.94C576.76 285.94 581.91 291.25 581.91 298.85C581.91 306.45 576.76 311.81 569.38 311.81C562 311.81 556.85 306.5 556.85 298.85ZM580.77 298.85C580.77 291.91 576.22 286.54 569.38 286.54C562.54 286.54 557.99 291.91 557.99 298.85C557.99 305.79 562.55 311.21 569.38 311.21C576.21 311.21 580.77 305.84 580.77 298.85Z" fill="#C6C6C6"/>
<path d="M569.38 312.81C561.42 312.81 555.85 307.07 555.85 298.85C555.85 290.63 561.41 284.94 569.38 284.94C577.35 284.94 582.91 290.66 582.91 298.85C582.91 307.04 577.35 312.81 569.38 312.81ZM569.38 287.54C563.26 287.54 558.99 292.19 558.99 298.85C558.99 305.51 563.26 310.21 569.38 310.21C575.5 310.21 579.77 305.54 579.77 298.85C579.77 292.16 575.5 287.54 569.38 287.54Z" fill="#C6C6C6"/>
<path d="M620.46 294.35V311.22H619.38V294.63C619.38 288.83 614.07 286.55 610.65 286.55C607.23 286.55 604.14 288.29 602.3 289.8C601.22 290.72 600.62 291.7 600.62 293.54V311.22H599.54V286.55H600.62V288.83C600.62 289.37 600.73 289.64 601 289.64C601.33 289.64 601.65 289.42 602.19 289.04C604.3 287.58 606.96 285.95 610.92 285.95C614.61 285.95 620.46 288.45 620.46 294.36V294.35Z" fill="#C6C6C6"/>
<path d="M621.46 312.21H618.38V294.62C618.38 289.46 613.64 287.54 610.65 287.54C606.9 287.54 603.8 289.86 602.94 290.57C602.09 291.29 601.62 291.98 601.62 293.54V312.22H598.54V285.55H601.62V288.23C604.07 286.53 606.9 284.96 610.92 284.96C615.17 284.96 621.46 287.95 621.46 294.37V312.24V312.21Z" fill="#C6C6C6"/>
<path d="M638.79 292.61C638.79 288.49 643.07 285.94 648.55 285.94C654.35 285.94 659.83 289.41 659.83 294.29H658.69C658.69 289.63 654.24 286.54 648.55 286.54C643.24 286.54 639.49 288.93 639.49 292.61C639.49 296.29 643.83 296.73 649.2 297.44C656.03 298.36 660.21 299.83 660.21 304.65C660.21 309.47 655.28 311.81 649.53 311.81C642.81 311.81 637.71 308.56 637.71 302.37H638.96C638.96 308.34 642.97 311.21 649.54 311.21C655.07 311.21 659.41 308.93 659.41 304.65C659.41 300.64 655.18 299.5 648.56 298.52C643.46 297.76 638.8 297.38 638.8 292.61H638.79Z" fill="#C6C6C6"/>
<path d="M649.53 312.81C641.74 312.81 636.71 308.71 636.71 302.37V301.37H639.96V302.37C639.96 308.85 645.17 310.21 649.54 310.21C653.63 310.21 658.41 308.75 658.41 304.65C658.41 301.55 655.04 300.49 648.42 299.51L647.53 299.38C642.75 298.69 637.81 297.97 637.81 292.61C637.81 288.09 642.24 284.94 648.57 284.94C655.34 284.94 660.85 289.14 660.85 294.29V295.29H657.71V294.29C657.71 290.38 653.87 287.54 648.57 287.54C643.75 287.54 640.51 289.58 640.51 292.61C640.51 295.15 643.87 295.73 649.35 296.44C655.36 297.25 661.23 298.55 661.23 304.64C661.23 309.52 656.53 312.8 649.55 312.8L649.53 312.81Z" fill="#C6C6C6"/>
<path d="M694.33 309.04V309.64C693.08 311.05 690.64 311.81 689.01 311.81C685.21 311.81 680.88 310.18 680.88 303.02V287.94C680.88 287.4 680.61 287.13 680.07 287.13H676.44V286.53H677.52C680.45 286.53 681.26 284.96 681.26 280.84H681.96V285.72C681.96 286.26 682.23 286.53 682.77 286.53H693.78V287.13H681.96V303.02C681.96 309.74 685.59 311.21 688.85 311.21C690.69 311.21 693.08 310.34 694.33 309.04Z" fill="#C6C6C6"/>
<path d="M689.01 312.81C685.6 312.81 679.88 311.54 679.88 303.02V288.13H675.43V285.53H677.51C679.37 285.53 680.25 285.07 680.25 280.84V279.84H682.95V285.53H694.77V288.13H682.95V303.02C682.95 307.86 684.88 310.21 688.84 310.21C690.51 310.21 692.59 309.39 693.6 308.35L695.32 306.55V310.01L695.07 310.29C693.61 311.94 690.92 312.8 689.01 312.8V312.81ZM680.91 286.3C680.91 286.3 680.94 286.32 680.96 286.32V286.24C680.96 286.24 680.93 286.28 680.91 286.3Z" fill="#C6C6C6"/>
<path d="M720.79 285.94C723.07 285.72 725.45 286.1 727.08 286.54V287.73C725.45 286.97 723.83 286.37 720.95 286.54C718.13 286.7 716.07 287.62 714.28 289.52C712.33 291.64 711.95 293.59 711.95 295.86V311.21H710.87V286.54H711.95V289.9C711.95 290.44 711.95 290.66 712.06 290.77C712.17 290.88 712.33 290.82 712.55 290.61C712.93 290.23 713.04 290.01 713.47 289.53C715.37 287.36 717.86 286.22 720.79 285.95V285.94Z" fill="#C6C6C6"/>
<path d="M712.95 312.21H709.87V285.54H712.95V288.6C714.93 286.47 717.53 285.24 720.7 284.94C723.55 284.67 726.29 285.29 727.34 285.57L728.08 285.77V289.3L726.66 288.64C725.17 287.95 723.71 287.38 721.01 287.54C718.43 287.69 716.63 288.49 715.01 290.21C713.3 292.07 712.95 293.75 712.95 295.87V312.22V312.21Z" fill="#C6C6C6"/>
<path d="M762.66 286.54H763.74V311.21H762.66V308.93C762.66 308.39 762.55 308.12 762.28 308.12C761.95 308.12 761.63 308.34 761.09 308.72C758.97 310.18 756.32 311.81 752.36 311.81C748.67 311.81 742.82 309.31 742.82 303.4V286.53H743.9V303.12C743.9 308.92 749.21 311.2 752.63 311.2C756.05 311.2 759.14 309.46 760.98 307.95C762.06 307.03 762.66 306.05 762.66 304.21V286.53V286.54Z" fill="#C6C6C6"/>
<path d="M752.35 312.81C748.1 312.81 741.81 309.82 741.81 303.4V285.53H744.89V303.12C744.89 308.28 749.63 310.2 752.62 310.2C756.37 310.2 759.47 307.88 760.34 307.17C761.19 306.45 761.66 305.76 761.66 304.2V285.52H764.74V312.19H761.66V309.52C759.2 311.22 756.38 312.79 752.36 312.79L752.35 312.81Z" fill="#C6C6C6"/>
<path d="M805.23 302.81C803.94 308.25 799.44 311.76 793.49 311.81L792.54 313.71C794.71 313.44 796.01 314.52 795.9 316.26C795.79 318.48 793.13 319.73 789.83 318.05L790.1 317.51C792.11 318.59 794.82 318.27 794.93 316.26C795.04 314.63 793.79 313.98 791.62 314.36L792.9 311.8C785.77 311.59 780.83 306.33 780.83 298.85C780.83 291.37 785.98 285.94 793.36 285.94C799.22 285.94 803.66 289.25 805.13 294.4H803.94C802.64 289.74 798.63 286.54 793.36 286.54C786.53 286.54 781.97 291.91 781.97 298.85C781.97 305.79 786.52 311.21 793.36 311.21C798.84 311.21 802.85 307.79 804.04 302.8H805.23V302.81Z" fill="#C6C6C6"/>
<path d="M792.76 319.82C791.7 319.82 790.54 319.52 789.37 318.93L788.48 318.48L789.66 316.13L790.57 316.62C791.56 317.15 792.81 317.27 793.49 316.88C793.77 316.72 793.9 316.51 793.92 316.19C793.95 315.68 793.8 315.54 793.74 315.49C793.63 315.39 793.16 315.09 791.78 315.33L789.83 315.67L791.33 312.67C784.48 311.77 779.82 306.28 779.82 298.84C779.82 290.65 785.38 284.93 793.35 284.93C799.59 284.93 804.47 288.45 806.08 294.12L806.44 295.39H803.16L802.96 294.66C801.73 290.26 798.05 287.53 793.35 287.53C787.23 287.53 782.96 292.18 782.96 298.84C782.96 305.5 787.23 310.2 793.35 310.2C798.21 310.2 801.93 307.27 803.06 302.56L803.24 301.79H806.49L806.2 303.02C804.86 308.66 800.21 312.42 794.26 312.76C794.91 312.91 795.47 313.19 795.91 313.61C796.61 314.27 796.97 315.23 796.9 316.3C796.84 317.52 796.19 318.59 795.11 319.21C794.42 319.61 793.62 319.81 792.76 319.81V319.82Z" fill="#C6C6C6"/>
<path d="M844 293.64V311.21H842.92V308.5C842.92 307.96 842.81 307.8 842.54 307.69C842.27 307.58 841.89 307.74 841.35 308.29C839.45 310.13 836.36 311.82 832.18 311.82C825.84 311.82 821.88 309.32 821.88 304.99C821.88 300.27 826.06 298.1 832.56 297.34C838.74 296.63 842.92 296.15 842.92 293.71C842.92 289.81 839.72 286.55 833.76 286.55C829.1 286.55 824.81 288.45 824.16 294.85H823.08C823.73 288.02 829.21 285.96 833.76 285.96C839.67 285.96 844.01 288.94 844.01 293.66L844 293.64ZM842.92 303.67V296.35C842.92 296.08 842.87 295.97 842.76 295.92C842.65 295.87 842.38 295.97 842.27 296.03C840.48 296.9 837.34 297.39 832.78 297.93C826.6 298.69 823.07 300.59 823.07 304.98C823.07 308.99 826.43 311.22 832.45 311.22C836.08 311.22 839.39 309.48 841.24 307.53C842.22 306.45 842.92 305.58 842.92 303.68V303.67Z" fill="#C6C6C6"/>
<path d="M832.18 312.81C825.21 312.81 820.88 309.81 820.88 304.98C820.88 300.15 824.66 297.25 832.45 296.34C837.32 295.78 841.92 295.26 841.92 293.7C841.92 289.96 838.72 287.54 833.76 287.54C828.55 287.54 825.66 290.03 825.16 294.94L825.07 295.84H821.98L822.08 294.75C822.77 287.52 828.56 284.95 833.76 284.95C840.38 284.95 845.01 288.53 845.01 293.65V312.22H841.93V309.13C840.4 310.57 837.21 312.82 832.19 312.82L832.18 312.81ZM841.92 297.26C839.94 297.98 837.03 298.43 832.9 298.92C826.72 299.68 824.07 301.49 824.07 304.98C824.07 309.31 828.63 310.22 832.45 310.22C836.05 310.22 839.04 308.4 840.51 306.85C841.4 305.86 841.92 305.21 841.92 303.69V297.27V297.26Z" fill="#C6C6C6"/>
<path d="M861.63 298.85C861.63 291.26 866.78 285.94 874.16 285.94C881.54 285.94 886.69 291.25 886.69 298.85C886.69 306.45 881.54 311.81 874.16 311.81C866.78 311.81 861.63 306.5 861.63 298.85ZM885.55 298.85C885.55 291.91 881 286.54 874.16 286.54C867.32 286.54 862.77 291.91 862.77 298.85C862.77 305.79 867.33 311.21 874.16 311.21C880.99 311.21 885.55 305.84 885.55 298.85Z" fill="#C6C6C6"/>
<path d="M874.16 312.81C866.2 312.81 860.63 307.07 860.63 298.85C860.63 290.63 866.19 284.94 874.16 284.94C882.13 284.94 887.69 290.66 887.69 298.85C887.69 307.04 882.13 312.81 874.16 312.81ZM874.16 287.54C868.04 287.54 863.77 292.19 863.77 298.85C863.77 305.51 868.04 310.21 874.16 310.21C880.28 310.21 884.55 305.54 884.55 298.85C884.55 292.16 880.28 287.54 874.16 287.54Z" fill="#C6C6C6"/>
<path d="M825.37 279.46C825.37 276.67 826.17 274.95 827.76 274.29C829.35 273.63 831.21 274.4 833.32 276.59C835.15 278.46 836.67 279.14 837.86 278.62C839.06 278.1 839.65 276.71 839.65 274.44H840.67C840.67 277.15 839.86 278.84 838.25 279.52C836.64 280.2 834.79 279.46 832.72 277.31C830.85 275.44 829.32 274.75 828.15 275.25C826.97 275.75 826.39 277.15 826.39 279.46H825.37Z" fill="#C6C6C6"/>
<path d="M837.05 280.76C835.47 280.76 833.77 279.84 832 278C830.51 276.51 829.28 275.86 828.54 276.17C827.59 276.57 827.39 278.18 827.39 279.46V280.46H824.37V279.46C824.37 276.24 825.38 274.19 827.38 273.37C829.38 272.54 831.62 273.4 834.04 275.9C835.5 277.39 836.71 278.03 837.46 277.71C838.25 277.37 838.65 276.27 838.65 274.44V273.44H841.67V274.44C841.67 277.58 840.65 279.6 838.64 280.44C838.12 280.66 837.59 280.76 837.05 280.76Z" fill="#C6C6C6"/>
</g>
<defs>
<clipPath id="clip0_232_725">
<rect width="887.68" height="325.5" fill="white"/>
</clipPath>
</defs>
</svg>
