<svg viewBox="0 0 450 450" xmlns="http://www.w3.org/2000/svg">
    <path fill="currentColor" d="M225 0C100.736 0 0 100.736 0 225C0 349.264 100.736 450 225 450C349.264 450 450 349.264 450 225C450 100.736 349.264 0 225 0ZM252.273 85L375 310H265.909L257.667 292.801L310.418 248.393L253.145 200.179L236.782 216.25L274.964 248.393L247.476 271.533L201.818 176.25L252.273 85ZM156.818 135L188.872 203.56L135.654 248.361L192.927 296.575L209.291 280.504L171.109 248.361L198.886 224.977L238.636 310H75L156.818 135Z"/>
</svg>
