<svg width="24" height="25" viewBox="0 0 24 25" fill="none" xmlns="http://www.w3.org/2000/svg">
<path d="M7.875 21.1875C5.625 21.9375 3.375 20.4375 2.625 19.6875M8.625 21.9375C8.625 21.9375 7.875 18.9375 9.375 17.4375C9.375 17.4375 6.375 17.4375 4.125 15.1875C1.875 12.9375 2.625 8.4375 4.125 6.9375C3.375 4.6875 4.875 3.1875 4.875 3.1875C4.875 3.1875 7.125 3.1875 8.625 4.6875C10.125 3.9375 13.875 3.9375 15.375 4.6875C16.875 3.1875 19.125 3.1875 19.125 3.1875C19.125 3.1875 20.625 4.6875 19.875 6.9375C21.375 8.4375 22.125 12.9375 19.875 15.1875C17.625 17.4375 14.625 17.4375 14.625 17.4375C16.125 18.9375 15.375 21.9375 15.375 21.9375H8.625Z" stroke="#004959" stroke-width="2" stroke-linecap="round" stroke-linejoin="round"/>
</svg>
