<svg width="24" height="25" viewBox="0 0 24 25" fill="none" xmlns="http://www.w3.org/2000/svg">
<g clip-path="url(#clip0_326_17)">
<path d="M12 0.5C8.74 0.5 8.333 0.515 7.053 0.572C5.775 0.632 4.905 0.833 4.14 1.13C3.351 1.436 2.681 1.847 2.014 2.514C1.347 3.181 0.935 3.85 0.63 4.64C0.333 5.405 0.131 6.275 0.072 7.553C0.012 8.833 0 9.24 0 12.5C0 15.76 0.015 16.167 0.072 17.447C0.132 18.724 0.333 19.595 0.63 20.36C0.931292 21.1609 1.4036 21.8864 2.014 22.486C2.61328 23.0968 3.3389 23.5692 4.14 23.87C4.906 24.166 5.776 24.369 7.053 24.428C8.333 24.488 8.74 24.5 12 24.5C15.26 24.5 15.667 24.485 16.947 24.428C18.224 24.368 19.095 24.166 19.86 23.87C20.6607 23.5683 21.3861 23.0961 21.986 22.486C22.597 21.8869 23.0694 21.1612 23.37 20.36C23.666 19.595 23.869 18.724 23.928 17.447C23.988 16.167 24 15.76 24 12.5C24 9.24 23.985 8.833 23.928 7.553C23.868 6.276 23.666 5.404 23.37 4.64C23.0686 3.83922 22.5963 3.11373 21.986 2.514C21.3872 1.90264 20.6614 1.43019 19.86 1.13C19.095 0.833 18.224 0.631 16.947 0.572C15.667 0.512 15.26 0.5 12 0.5ZM12 2.66C15.203 2.66 15.585 2.676 16.85 2.731C18.02 2.786 18.655 2.98 19.077 3.146C19.639 3.363 20.037 3.623 20.459 4.042C20.878 4.462 21.138 4.861 21.355 5.423C21.519 5.845 21.715 6.48 21.768 7.65C21.825 8.916 21.838 9.296 21.838 12.5C21.838 15.704 21.823 16.085 21.764 17.35C21.703 18.52 21.508 19.155 21.343 19.577C21.1478 20.0978 20.8409 20.5695 20.444 20.959C20.0561 21.3563 19.5847 21.6624 19.064 21.855C18.644 22.019 17.999 22.215 16.829 22.268C15.555 22.325 15.18 22.338 11.97 22.338C8.759 22.338 8.384 22.323 7.111 22.264C5.94 22.203 5.295 22.008 4.875 21.843C4.3539 21.6502 3.88268 21.343 3.496 20.944C3.09458 20.5587 2.78671 20.0867 2.596 19.564C2.431 19.144 2.237 18.499 2.176 17.329C2.131 16.069 2.115 15.68 2.115 12.485C2.115 9.289 2.131 8.899 2.176 7.624C2.237 6.454 2.431 5.81 2.596 5.39C2.806 4.82 3.075 4.43 3.496 4.009C3.915 3.59 4.306 3.32 4.875 3.111C5.295 2.945 5.926 2.75 7.096 2.69C8.371 2.645 8.746 2.63 11.955 2.63L12 2.66ZM12 6.338C11.1908 6.338 10.3895 6.49739 9.6419 6.80705C8.8943 7.11672 8.215 7.57061 7.64281 8.14281C7.07061 8.715 6.61672 9.3943 6.30705 10.1419C5.99738 10.8895 5.838 11.6908 5.838 12.5C5.838 13.3092 5.99738 14.1105 6.30705 14.8581C6.61672 15.6057 7.07061 16.285 7.64281 16.8572C8.215 17.4294 8.8943 17.8833 9.6419 18.1929C10.3895 18.5026 11.1908 18.662 12 18.662C13.6343 18.662 15.2016 18.0128 16.3572 16.8572C17.5128 15.7016 18.162 14.1343 18.162 12.5C18.162 10.8657 17.5128 9.29841 16.3572 8.14281C15.2016 6.98721 13.6343 6.338 12 6.338ZM12 16.5C9.79 16.5 8 14.71 8 12.5C8 10.29 9.79 8.5 12 8.5C14.21 8.5 16 10.29 16 12.5C16 14.71 14.21 16.5 12 16.5ZM19.846 6.095C19.8321 6.46762 19.6743 6.82036 19.4058 7.07907C19.1373 7.33778 18.7789 7.48233 18.406 7.48233C18.0331 7.48233 17.6747 7.33778 17.4062 7.07907C17.1377 6.82036 16.9799 6.46762 16.966 6.095C16.966 5.71309 17.1177 5.34682 17.3878 5.07677C17.6578 4.80671 18.0241 4.655 18.406 4.655C18.7879 4.655 19.1542 4.80671 19.4242 5.07677C19.6943 5.34682 19.846 5.71309 19.846 6.095Z" fill="#004959"/>
</g>
<defs>
<clipPath id="clip0_326_17">
<rect width="24" height="24" fill="white" transform="translate(0 0.5)"/>
</clipPath>
</defs>
</svg>
