<svg width="24" height="25" viewBox="0 0 24 25" fill="none" xmlns="http://www.w3.org/2000/svg">
<path fill-rule="evenodd" clip-rule="evenodd" d="M9.429 9.5315H13.143V11.3815C13.678 10.3175 15.05 9.3615 17.111 9.3615C21.062 9.3615 22 11.4795 22 15.3655V22.5625H18V16.2505C18 14.0375 17.465 12.7895 16.103 12.7895C14.214 12.7895 13.429 14.1345 13.429 16.2495V22.5625H9.429V9.5315ZM2.57 22.3925H6.57V9.3615H2.57V22.3925ZM7.143 5.1125C7.14315 5.44778 7.07666 5.77974 6.94739 6.08909C6.81812 6.39844 6.62865 6.67901 6.39 6.9145C5.9064 7.39512 5.25181 7.66415 4.57 7.6625C3.88939 7.66204 3.23631 7.3937 2.752 6.9155C2.51421 6.67921 2.32539 6.39832 2.19634 6.08893C2.0673 5.77954 2.00058 5.44772 2 5.1125C2 4.4355 2.27 3.7875 2.753 3.3095C3.23689 2.83066 3.89024 2.5622 4.571 2.5625C5.253 2.5625 5.907 2.8315 6.39 3.3095C6.872 3.7875 7.143 4.4355 7.143 5.1125Z" fill="#004959"/>
</svg>
