<svg width="75" height="75" viewBox="0 0 75 75" fill="none" xmlns="http://www.w3.org/2000/svg">
<g id="header__logoContainer">
<path id="path" fill-rule="evenodd" clip-rule="evenodd" d="M37.5 0C16.7893 0 0 16.7893 0 37.5C0 58.2107 16.7893 75 37.5 75C58.2107 75 75 58.2107 75 37.5C75 16.7893 58.2107 0 37.5 0ZM42.0454 14.1667L62.5 51.6667H44.3182L42.9445 48.8001L51.7364 41.3988L42.1909 33.3631L39.4636 36.0417L45.8273 41.3988L41.246 45.2555L33.6364 29.375L42.0454 14.1667ZM26.1364 22.5L31.4787 33.9267L22.6091 41.3935L32.1545 49.4292L34.8818 46.7506L28.5182 41.3935L33.1476 37.4962L39.7727 51.6667H12.5L26.1364 22.5Z" fill="#00A0C3"/>
</g>
</svg>
