<?xml version="1.0" encoding="iso-8859-1"?>
<!-- Generator: Adobe Illustrator 19.0.0, SVG Export Plug-In . SVG Version: 6.00 Build 0)  -->
<svg version="1.1" id="Capa_1" xmlns="http://www.w3.org/2000/svg" xmlns:xlink="http://www.w3.org/1999/xlink" x="0px" y="0px"
	 viewBox="0 0 504.161 504.161" style="enable-background:new 0 0 504.161 504.161;" xml:space="preserve">
<g>
	<g transform="translate(1 1)">
		<path style="fill:#A4C2F7;" d="M24.18,7.67h302.164c9.271,0,16.787,7.516,16.787,16.787v453.246
			c0,9.271-7.516,16.787-16.787,16.787H24.18c-9.271,0-16.787-7.516-16.787-16.787V24.457C7.393,15.186,14.909,7.67,24.18,7.67z"/>
		<g>
			<path style="fill:#E3E7F2;" d="M24.18,7.67h276.984c9.271,0,16.787,7.516,16.787,16.787v453.246
				c0,9.271-7.516,16.787-16.787,16.787H24.18c-9.271,0-16.787-7.516-16.787-16.787V24.457C7.393,15.186,14.909,7.67,24.18,7.67z"/>
			<polygon style="fill:#E3E7F2;" points="93.367,377.83 57.754,460.916 140.841,425.303 150.082,410.556 108.115,368.589 			"/>
		</g>
		<polygon style="fill:#A4C2F7;" points="475.999,90.178 140.849,425.328 93.342,377.821 428.492,42.671 455.016,69.194 		"/>
		<g>
			<polygon style="fill:#E3E7F2;" points="455.016,69.194 408.852,115.358 119.866,404.345 93.342,377.821 428.492,42.671 			"/>
			
				<rect x="414.053" y="98.197" transform="matrix(-0.7071 0.7071 -0.7071 -0.7071 817.6605 -112.6125)" style="fill:#E3E7F2;" width="36.201" height="29.679"/>
		</g>
		
			<rect x="390.288" y="70.543" transform="matrix(-0.7071 0.7071 -0.7071 -0.7071 760.3064 -136.3329)" style="fill:#F5F5F5;" width="36.201" height="37.51"/>
		<path style="fill:#A4C2F7;" d="M485.064,81.113l-29.629,29.629l-20.648-20.648l-26.859-26.859l29.629-29.629
			c8.486-8.486,20.855-11.801,32.448-8.694c11.592,3.106,20.647,12.161,23.753,23.753C496.865,60.258,493.551,72.627,485.064,81.113
			z"/>
		<path style="fill:#E3E7F2;" d="M464.416,60.465l-29.629,29.629l-26.859-26.859l29.629-29.629
			c9.127-9.107,22.653-12.204,34.833-7.974C476.62,37.812,473.524,51.338,464.416,60.465z"/>
		<path style="fill:#FFFFFF;" d="M24.18,494.49h25.18c-9.26-0.028-16.759-7.527-16.787-16.787V24.457
			c0.028-9.26,7.527-16.759,16.787-16.787H24.18c-9.26,0.028-16.759,7.527-16.787,16.787v453.246
			C7.421,486.963,14.921,494.462,24.18,494.49z"/>
	</g>
	<g>
		<polygon style="fill:#FFFFFF;" points="16.787,25.457 16.787,134.572 16.787,478.703 0,478.703 0,134.572 0,25.457 		"/>
		<g>
			<path style="fill:#428DFF;" d="M8.393,67.425c4.636,0,8.393-3.758,8.393-8.393V25.457c0-4.636,3.758-8.393,8.393-8.393h302.164
				c4.636,0,8.393,3.758,8.393,8.393v50.361c0,4.636,3.758,8.393,8.393,8.393s8.393-3.758,8.393-8.393V25.457
				c0-13.907-11.274-25.18-25.18-25.18H25.18C11.274,0.277,0,11.551,0,25.457v33.574C0,63.667,3.758,67.425,8.393,67.425z"/>
			<path style="fill:#428DFF;" d="M11.583,84.883c-0.476-0.242-0.985-0.412-1.511-0.504c-0.555-0.093-1.116-0.15-1.679-0.168
				c-2.222,0.033-4.35,0.902-5.959,2.434c-0.759,0.802-1.357,1.743-1.763,2.77c-1.266,3.131-0.576,6.713,1.763,9.149
				c0.802,0.759,1.743,1.357,2.77,1.763c1.009,0.43,2.093,0.658,3.19,0.671c2.222-0.033,4.35-0.902,5.959-2.434
				c3.246-3.31,3.246-8.609,0-11.919l-1.259-1.007C12.626,85.32,12.118,85.066,11.583,84.883z"/>
			<path style="fill:#428DFF;" d="M25.18,503.884h302.164c13.907,0,25.18-11.274,25.18-25.18V277.261
				c0-4.636-3.758-8.393-8.393-8.393s-8.393,3.758-8.393,8.393v201.443c0,4.636-3.758,8.393-8.393,8.393H25.18
				c-4.636,0-8.393-3.758-8.393-8.393V126.179c0-4.636-3.758-8.393-8.393-8.393S0,121.543,0,126.179v352.525
				C0,492.61,11.274,503.884,25.18,503.884z"/>
			<path style="fill:#428DFF;" d="M432.665,28.655l-55.262,55.254L88.433,372.896c-0.084,0.076-0.109,0.185-0.185,0.26
				c-0.664,0.691-1.203,1.492-1.595,2.367l-0.067,0.143l-35.546,82.944c-1.112,2.593-0.846,5.571,0.707,7.927
				c1.553,2.356,4.185,3.773,7.007,3.774c1.137,0.002,2.263-0.229,3.307-0.68l82.936-35.546l0.143-0.067
				c0.877-0.388,1.678-0.928,2.367-1.595c0.076-0.076,0.185-0.101,0.26-0.185l288.978-288.961l55.254-55.262
				c16.267-16.41,16.209-42.882-0.13-59.22c-16.339-16.338-42.81-16.396-59.22-0.13L432.665,28.655z M430.819,125.457
				l-35.605-35.605l13.707-13.715l35.613,35.613L430.819,125.457z M383.345,101.72l35.605,35.605L141.849,414.435l-35.613-35.613
				L383.345,101.72z M74.702,445.969l22.461-52.409l29.948,29.948L74.702,445.969z M480.105,76.171L456.36,99.916l-35.571-35.647
				l23.745-23.703c6.362-6.362,15.634-8.846,24.324-6.518c8.69,2.329,15.478,9.116,17.807,17.807
				c2.329,8.69-0.156,17.963-6.518,24.324L480.105,76.171z"/>
			<path style="fill:#428DFF;" d="M276.984,75.818H75.541c-4.636,0-8.393,3.758-8.393,8.393c0,4.636,3.758,8.393,8.393,8.393
				h201.443c4.636,0,8.393-3.758,8.393-8.393C285.377,79.576,281.619,75.818,276.984,75.818z"/>
			<path style="fill:#428DFF;" d="M285.377,134.572c0-4.636-3.758-8.393-8.393-8.393H75.541c-4.636,0-8.393,3.758-8.393,8.393
				c0,4.636,3.758,8.393,8.393,8.393h201.443C281.619,142.966,285.377,139.208,285.377,134.572z"/>
			<path style="fill:#428DFF;" d="M75.541,176.539c-4.636,0-8.393,3.758-8.393,8.393c0,4.636,3.758,8.393,8.393,8.393h151.082
				c4.636,0,8.393-3.758,8.393-8.393c0-4.636-3.758-8.393-8.393-8.393H75.541z"/>
		</g>
	</g>
</g>
<g>
</g>
<g>
</g>
<g>
</g>
<g>
</g>
<g>
</g>
<g>
</g>
<g>
</g>
<g>
</g>
<g>
</g>
<g>
</g>
<g>
</g>
<g>
</g>
<g>
</g>
<g>
</g>
<g>
</g>
</svg>
