<?xml version="1.0" encoding="iso-8859-1"?>
<!-- Generator: Adobe Illustrator 19.0.0, SVG Export Plug-In . SVG Version: 6.00 Build 0)  -->
<svg version="1.1" id="Capa_1" xmlns="http://www.w3.org/2000/svg" xmlns:xlink="http://www.w3.org/1999/xlink" x="0px" y="0px"
	 viewBox="0 0 512 512" style="enable-background:new 0 0 512 512;" xml:space="preserve">
<g>
	<g transform="translate(1 1)">
		<path style="fill:#A4C2F7;" d="M24.6,92.867h460.8c9.426,0,17.067,7.641,17.067,17.067v290.133
			c0,9.426-7.641,17.067-17.067,17.067H24.6c-9.426,0-17.067-7.641-17.067-17.067V109.934C7.534,100.508,15.175,92.867,24.6,92.867z
			"/>
		<path style="fill:#E3E7F2;" d="M24.6,92.867h435.2c9.426,0,17.067,7.641,17.067,17.067v290.133
			c0,9.426-7.641,17.067-17.067,17.067H24.6c-9.426,0-17.067-7.641-17.067-17.067V109.934C7.534,100.508,15.175,92.867,24.6,92.867z
			"/>
		<g>
			<path style="fill:#FFFFFF;" d="M127,152.6h17.067c18.851,0,34.133,15.282,34.133,34.133v34.133
				c0,18.851-15.282,34.133-34.133,34.133H127c-18.851,0-34.133-15.282-34.133-34.133v-34.133
				C92.867,167.882,108.149,152.6,127,152.6z"/>
			<path style="fill:#FFFFFF;" d="M163.643,365.934H203.8v-42.667c0.536-18.291-13.838-33.562-32.128-34.133H99.395
				c-18.29,0.571-32.664,15.842-32.128,34.133v42.667H163.643z"/>
		</g>
		<path style="fill:#FFFFFF;" d="M24.6,417.134h25.6c-9.414-0.028-17.039-7.653-17.067-17.067V109.934
			c0.028-9.414,7.653-17.039,17.067-17.067H24.6c-9.414,0.028-17.039,7.653-17.067,17.067v290.133
			C7.562,409.481,15.186,417.105,24.6,417.134z"/>
	</g>
	<g>
		<polygon style="fill:#FFFFFF;" points="0,307.2 0,196.267 0,110.934 17.067,110.934 17.067,196.267 17.067,307.2 		"/>
		<g>
			<path style="fill:#428DFF;" d="M5.291,246.784c0.484,0.246,1.001,0.419,1.536,0.512c0.564,0.095,1.135,0.152,1.707,0.171
				c2.259-0.033,4.422-0.917,6.059-2.475c0.771-0.816,1.38-1.772,1.792-2.816c1.287-3.183,0.586-6.825-1.792-9.301
				c-0.816-0.771-1.772-1.38-2.816-1.792c-1.026-0.437-2.128-0.669-3.243-0.683c-2.259,0.033-4.422,0.917-6.059,2.475
				c-3.3,3.365-3.3,8.752,0,12.117l1.28,1.024C4.231,246.339,4.747,246.598,5.291,246.784z"/>
			<path style="fill:#428DFF;" d="M486.4,85.334H25.6c-14.138,0-25.6,11.462-25.6,25.6V204.8c0,4.713,3.821,8.533,8.533,8.533
				s8.533-3.821,8.533-8.533v-93.867c0-4.713,3.821-8.533,8.533-8.533h460.8c4.713,0,8.533,3.821,8.533,8.533v290.133
				c0,4.713-3.821,8.533-8.533,8.533H264.534V136.534c0-4.713-3.82-8.533-8.533-8.533s-8.533,3.82-8.533,8.533V409.6H25.6
				c-4.713,0-8.533-3.82-8.533-8.533v-128c0-4.713-3.821-8.533-8.533-8.533S0,268.354,0,273.067v128c0,14.138,11.462,25.6,25.6,25.6
				h460.8c14.138,0,25.6-11.462,25.6-25.6V110.934C512,96.795,500.539,85.334,486.4,85.334z"/>
			<path style="fill:#428DFF;" d="M145.067,264.534c23.552-0.028,42.638-19.114,42.667-42.667v-34.133
				c-0.028-23.552-19.114-42.638-42.667-42.667H128c-23.552,0.028-42.638,19.114-42.667,42.667v34.133
				c0.028,23.552,19.114,42.638,42.667,42.667H145.067z M102.4,221.867v-34.133c0-14.138,11.462-25.6,25.6-25.6h17.067
				c14.139,0,25.6,11.462,25.6,25.6v34.133c0,14.138-11.462,25.6-25.6,25.6H128C113.862,247.467,102.4,236.005,102.4,221.867z"/>
			<path style="fill:#428DFF;" d="M59.734,324.267v42.667c0,4.713,3.821,8.533,8.533,8.533s8.533-3.82,8.533-8.533v-42.667
				c-0.515-13.571,10.027-25.009,23.595-25.6h72.277c13.567,0.591,24.11,12.029,23.595,25.6V358.4h-31.625
				c-4.713,0-8.533,3.82-8.533,8.533s3.82,8.533,8.533,8.533H204.8c4.713,0,8.533-3.82,8.533-8.533v-42.667
				c0.515-22.996-17.668-42.075-40.661-42.667h-72.277C77.401,282.192,59.218,301.271,59.734,324.267z"/>
			<path style="fill:#428DFF;" d="M298.667,170.667h153.6c4.713,0,8.533-3.821,8.533-8.533s-3.821-8.533-8.533-8.533h-153.6
				c-4.713,0-8.533,3.82-8.533,8.533S293.954,170.667,298.667,170.667z"/>
			<path style="fill:#428DFF;" d="M298.667,221.867h153.6c4.713,0,8.533-3.821,8.533-8.533c0-4.713-3.821-8.533-8.533-8.533h-153.6
				c-4.713,0-8.533,3.821-8.533,8.533C290.134,218.046,293.954,221.867,298.667,221.867z"/>
			<path style="fill:#428DFF;" d="M298.667,273.067h153.6c4.713,0,8.533-3.821,8.533-8.533c0-4.713-3.821-8.533-8.533-8.533h-153.6
				c-4.713,0-8.533,3.821-8.533,8.533C290.134,269.246,293.954,273.067,298.667,273.067z"/>
			<path style="fill:#428DFF;" d="M452.267,307.2h-76.8c-4.713,0-8.533,3.82-8.533,8.533s3.82,8.533,8.533,8.533h76.8
				c4.713,0,8.533-3.82,8.533-8.533S456.98,307.2,452.267,307.2z"/>
		</g>
	</g>
</g>
<g>
</g>
<g>
</g>
<g>
</g>
<g>
</g>
<g>
</g>
<g>
</g>
<g>
</g>
<g>
</g>
<g>
</g>
<g>
</g>
<g>
</g>
<g>
</g>
<g>
</g>
<g>
</g>
<g>
</g>
</svg>
