<?xml version="1.0" encoding="iso-8859-1"?>
<!-- Generator: Adobe Illustrator 19.0.0, SVG Export Plug-In . SVG Version: 6.00 Build 0)  -->
<svg version="1.1" id="Capa_1" xmlns="http://www.w3.org/2000/svg" xmlns:xlink="http://www.w3.org/1999/xlink" x="0px" y="0px"
	 viewBox="0 0 512 512" style="enable-background:new 0 0 512 512;" xml:space="preserve">
<g transform="translate(0 -1)">
	<g transform="translate(1 2)">
		<path style="fill:#A4C2F7;" d="M24.6,67.292h460.8c9.426,0,17.067,7.641,17.067,17.067v341.333
			c0,9.426-7.641,17.067-17.067,17.067H24.6c-9.426,0-17.067-7.641-17.067-17.067V84.358C7.533,74.933,15.174,67.292,24.6,67.292z"
			/>
		<path style="fill:#E3E7F2;" d="M476.867,84.358v341.333c-0.028,9.414-7.653,17.039-17.067,17.067H24.6
			c-0.853,0-1.707-0.085-2.56-0.171c-0.256-0.085-0.597-0.085-0.853-0.171c-0.847-0.178-1.676-0.435-2.475-0.768h-0.085
			c-0.921-0.34-1.807-0.768-2.645-1.28c-0.773-0.463-1.514-0.976-2.219-1.536l-0.171-0.171c-3.836-3.216-6.054-7.964-6.059-12.971
			V84.358C7.5,80.228,9.023,76.237,11.8,73.18c0.427-0.427,0.853-0.939,1.365-1.365c3.09-2.918,7.184-4.537,11.435-4.523h435.2
			C469.214,67.32,476.839,74.944,476.867,84.358z"/>
		<path style="fill:#A4C2F7;" d="M476.867,91.356v-6.997c-0.028-9.414-7.653-17.039-17.067-17.067h25.6
			c4.921,0.001,9.597,2.151,12.8,5.888L476.867,91.356z"/>
		<path style="fill:#E3E7F2;" d="M476.867,84.358v6.997L307.309,236.166l-35.84,30.635c-9.514,8.022-23.424,8.022-32.939,0
			l-35.925-30.635L11.8,73.18c0.427-0.427,0.853-0.939,1.365-1.365c3.09-2.918,7.184-4.537,11.435-4.523h435.2
			C469.214,67.32,476.839,74.944,476.867,84.358z"/>
		<path style="fill:#A4C2F7;" d="M496.408,438.662c-3.059,2.641-6.966,4.095-11.008,4.096h-25.6
			c9.414-0.028,17.039-7.653,17.067-17.067v-7.936L496.408,438.662z"/>
		<path style="fill:#E3E7F2;" d="M476.867,417.756v7.936c-0.028,9.414-7.653,17.039-17.067,17.067H24.6
			c-0.853,0-1.707-0.085-2.56-0.171c-0.256-0.085-0.597-0.085-0.853-0.171c-0.847-0.178-1.676-0.435-2.475-0.768h-0.085
			c-0.921-0.34-1.807-0.768-2.645-1.28c-0.773-0.463-1.514-0.976-2.219-1.536l-0.171-0.171l189.013-202.496l35.925,30.635
			c9.514,8.022,23.424,8.022,32.939,0l35.84-30.635L476.867,417.756z"/>
		<path style="fill:#FFFFFF;" d="M8.25,430.3c0.227,0.824,0.512,1.631,0.853,2.415c0.154,0.333,0.35,0.64,0.529,0.973
			c0.376,0.717,0.801,1.407,1.271,2.065c0.213,0.282,0.444,0.538,0.674,0.811c0.54,0.657,1.131,1.27,1.766,1.835
			c0.094,0.085,0.162,0.188,0.256,0.265l0.171,0.171c0.196,0.145,0.418,0.282,0.623,0.435c0.427,0.316,0.853,0.623,1.314,0.905
			c0.09,0.07,0.184,0.136,0.282,0.196c0.222,0.137,0.469,0.213,0.691,0.333c0.569,0.319,1.156,0.603,1.758,0.853l0.196,0.094h0.085
			c0.799,0.333,1.627,0.59,2.475,0.768c0.256,0.085,0.597,0.085,0.853,0.171c0.853,0.085,1.707,0.171,2.56,0.171H50.2
			c-0.853,0-1.707-0.085-2.56-0.171c-0.256-0.085-0.597-0.085-0.853-0.171c-0.847-0.178-1.676-0.435-2.475-0.768h-0.085
			l-0.196-0.094c-0.602-0.25-1.189-0.535-1.758-0.853c-0.222-0.119-0.469-0.196-0.691-0.333c-0.097-0.061-0.191-0.126-0.282-0.196
			c-0.461-0.282-0.853-0.589-1.314-0.905c-0.205-0.154-0.427-0.29-0.623-0.435l-0.171-0.171c-0.094-0.077-0.162-0.179-0.256-0.265
			c-0.636-0.565-1.226-1.178-1.766-1.835c-0.23-0.273-0.461-0.529-0.674-0.811c-0.471-0.658-0.896-1.348-1.271-2.065
			c-0.179-0.333-0.375-0.64-0.529-0.973c-0.342-0.784-0.627-1.591-0.853-2.415c-0.094-0.333-0.23-0.64-0.307-0.973
			c-0.264-1.194-0.398-2.413-0.401-3.635V84.358c0.005-1.115,0.119-2.227,0.341-3.319c0-0.247,0.137-0.478,0.196-0.725
			c0.187-0.809,0.435-1.602,0.742-2.372c0.145-0.341,0.333-0.657,0.495-0.99c0.27-0.587,0.575-1.157,0.913-1.707
			c0.403-0.603,0.844-1.179,1.323-1.724c0.094-0.102,0.162-0.23,0.256-0.341l0.137-0.137c1.046-1.18,2.249-2.211,3.575-3.063
			c0.23-0.154,0.486-0.256,0.725-0.393c0.631-0.385,1.286-0.727,1.963-1.024c0.606-0.225,1.224-0.416,1.852-0.572
			c0.41-0.119,0.794-0.273,1.212-0.358c1.098-0.227,2.216-0.341,3.337-0.341H24.6c-1.121,0-2.239,0.115-3.337,0.341
			c-0.418,0.085-0.802,0.239-1.212,0.358c-0.627,0.156-1.246,0.347-1.852,0.572c-0.676,0.297-1.332,0.639-1.963,1.024
			c-0.239,0.137-0.495,0.239-0.725,0.393c-1.326,0.853-2.529,1.884-3.575,3.063L11.8,73.18c-0.094,0.111-0.162,0.239-0.256,0.341
			c-0.479,0.553-0.921,1.138-1.323,1.749c-0.339,0.55-0.643,1.12-0.913,1.707c-0.162,0.333-0.35,0.649-0.495,0.99
			c-0.308,0.771-0.556,1.564-0.742,2.372c-0.06,0.247-0.154,0.478-0.196,0.725c-0.22,1.084-0.335,2.187-0.341,3.294v341.333
			c0.006,1.223,0.143,2.442,0.41,3.635C8.02,429.66,8.156,429.958,8.25,430.3z"/>
	</g>
	<g>
		<polygon style="fill:#FFFFFF;" points="25.6,60.758 136.533,60.758 486.4,60.758 486.4,77.825 136.533,77.825 25.6,77.825 		"/>
		<g>
			<path style="fill:#428DFF;" d="M99.925,75.35c0.771-0.816,1.38-1.772,1.792-2.816c0.437-1.026,0.669-2.128,0.683-3.243
				c0.02-3.467-2.059-6.601-5.261-7.931c-3.202-1.329-6.89-0.59-9.331,1.872l-1.024,1.28c-0.323,0.476-0.582,0.992-0.768,1.536
				c-0.247,0.484-0.419,1.001-0.512,1.536c-0.095,0.564-0.152,1.135-0.171,1.707c0.033,2.259,0.917,4.422,2.475,6.059
				c0.816,0.771,1.772,1.38,2.816,1.792C93.807,78.43,97.449,77.728,99.925,75.35z"/>
			<path style="fill:#428DFF;" d="M486.4,60.758H128c-4.713,0-8.533,3.821-8.533,8.533s3.821,8.533,8.533,8.533h358.4
				c4.713,0,8.533,3.821,8.533,8.533v341.333c0,4.713-3.82,8.533-8.533,8.533H25.6c-4.713,0-8.533-3.821-8.533-8.533V86.358
				c0-4.713,3.821-8.533,8.533-8.533h34.133c4.713,0,8.533-3.821,8.533-8.533s-3.821-8.533-8.533-8.533H25.6
				C11.462,60.758,0,72.22,0,86.358v341.333c0,14.138,11.462,25.6,25.6,25.6h460.8c14.138,0,25.6-11.462,25.6-25.6V86.358
				C512,72.22,500.539,60.758,486.4,60.758z"/>
			<path style="fill:#428DFF;" d="M36.13,97.938c-1.455,1.734-2.163,3.974-1.966,6.229c0.197,2.255,1.282,4.339,3.015,5.794
				l196.864,165.367c12.688,10.683,31.224,10.683,43.913,0L474.82,109.961c3.61-3.03,4.08-8.413,1.05-12.023
				c-3.03-3.61-8.413-4.08-12.023-1.05L266.982,262.264c-6.349,5.337-15.616,5.337-21.965,0L48.154,96.888
				c-1.734-1.455-3.974-2.163-6.229-1.966C39.67,95.12,37.585,96.204,36.13,97.938z"/>
			<path style="fill:#428DFF;" d="M155.895,276.805l-119.467,128c-2.162,2.214-2.956,5.426-2.074,8.392
				c0.882,2.967,3.301,5.223,6.321,5.897c3.021,0.674,6.169-0.34,8.229-2.65l119.467-128c2.162-2.214,2.956-5.426,2.074-8.392
				c-0.882-2.967-3.301-5.223-6.321-5.897C161.104,273.481,157.955,274.495,155.895,276.805z"/>
			<path style="fill:#428DFF;" d="M344.047,276.387c-3.444,3.215-3.631,8.612-0.418,12.058l119.467,128
				c3.24,3.318,8.536,3.442,11.927,0.278c3.391-3.164,3.634-8.456,0.549-11.918l-119.467-128
				C352.89,273.361,347.492,273.174,344.047,276.387z"/>
		</g>
	</g>
</g>
<g>
</g>
<g>
</g>
<g>
</g>
<g>
</g>
<g>
</g>
<g>
</g>
<g>
</g>
<g>
</g>
<g>
</g>
<g>
</g>
<g>
</g>
<g>
</g>
<g>
</g>
<g>
</g>
<g>
</g>
</svg>
