<?xml version="1.0" encoding="iso-8859-1"?>
<!-- Generator: Adobe Illustrator 19.0.0, SVG Export Plug-In . SVG Version: 6.00 Build 0)  -->
<svg version="1.1" id="Capa_1" xmlns="http://www.w3.org/2000/svg" xmlns:xlink="http://www.w3.org/1999/xlink" x="0px" y="0px"
	 viewBox="0 0 496.135 496.135" style="enable-background:new 0 0 496.135 496.135;" xml:space="preserve">
<g transform="translate(-1)">
	<g transform="translate(2 2)">
		<path style="fill:#A4C2F7;" d="M486.557,246.047c0,132.263-107.221,239.484-239.484,239.484V6.563
			C379.336,6.563,486.557,113.783,486.557,246.047z"/>
		<g>
			<path style="fill:#E3E7F2;" d="M461.783,246.047c0.024,122.689-92.678,225.553-214.71,238.245V7.801
				C369.104,20.493,461.806,123.357,461.783,246.047z"/>
			<path style="fill:#E3E7F2;" d="M247.073,6.563V485.53C114.81,485.53,7.589,378.31,7.589,246.047S114.81,6.563,247.073,6.563z"/>
			<path style="fill:#E3E7F2;" d="M246.99,329.123v156.739c-8.413,0.019-16.822-0.422-25.187-1.322l0.083-0.743
				c-8.754-10.818-22.214-15.773-33.28-23.701c-8.964-5.54-14.829-14.947-15.855-25.435c0.422-6.271,2.317-12.354,5.533-17.755
				c4.129-7.845,3.468-18.168,9.579-24.857c5.203-5.781,13.213-7.185,19.159-11.809c5.689-4.636,10.428-10.328,13.956-16.764
				c5.037-8.754,8.423-20.728,15.525-28.243C239.335,332.227,242.978,330.104,246.99,329.123z"/>
			<path style="fill:#E3E7F2;" d="M208.838,223.419c0,16.434,15.277,25.517,27.417,34.766c4.187,3.528,7.808,7.677,10.735,12.305
				v22.71c-0.293,0.182-0.596,0.348-0.908,0.496c-1.96,0.534-4.037,0.448-5.946-0.248c-18.003-4.542-36.088-9.084-54.173-13.461
				c-15.03-3.634-31.711-8.423-39.226-21.966c-6.359-11.396-4.542-26.426-12.222-36.831c-6.854-9.166-18.828-12.222-29.812-15.36
				c-10.818-3.303-22.71-8.423-26.839-18.994c-6.606-17.507,12.387-36.17,7.763-54.338c-4.377-17.012-22.214-18.415-35.84-12.305
				c-2.9,1.252-5.535,3.046-7.763,5.285l-1.074-1.074c31.233-52.794,81.547-91.579,140.552-108.346
				c9.244,14.117,24.684,22.957,41.538,23.783c8.01,0.413,16.103-1.321,23.948-1.239v172.263c-0.978-0.253-1.943-0.556-2.89-0.908
				c-7.68-2.973-14.452-7.763-22.957-4.459C213.72,208.341,208.824,215.471,208.838,223.419z"/>
		</g>
	</g>
	<path style="fill:#FFFFFF;" d="M223.845,486.201v0.339c8.365,0.9,16.774,1.341,25.187,1.321v-0.33h0.041
		c3.031,0,6.028-0.116,9.026-0.231c-3.188-0.206-6.375-0.413-9.522-0.76v-0.339c-124.3-13.142-217.589-119.67-214.217-244.618
		C37.733,116.635,136.632,15.295,261.46,8.876c-4.102-0.209-8.231-0.314-12.387-0.314C121.707,8.548,16.612,108.227,9.894,235.415
		S97.186,472.799,223.845,486.201z"/>
	<path style="fill:#428DFF;" d="M496.815,247.601C496.228,114.91,391.312,6.184,258.727,0.866
		c-8.64-1.252-17.422-1.146-26.029,0.314C151.139,6.57,77.488,51.842,35.85,122.177c-0.576,0.956-0.945,2.022-1.082,3.13
		c-3.941,5.253-7.215,10.976-9.745,17.036l-0.619,1.338C-9.299,216.23-5.935,300.583,33.44,370.217s109.922,115.998,189.464,124.514
		c8.605,0.918,17.252,1.373,25.906,1.363c0.083,0,0.149,0.041,0.223,0.041c0.074,0,0.149-0.041,0.231-0.041
		c82.37,0.054,159.335-40.998,205.172-109.436c0.696-0.719,1.256-1.558,1.652-2.477c26.499-40.348,40.653-87.549,40.729-135.82
		c0-0.198,0-0.396,0-0.595V247.7V247.601z M445.045,370.819c-22.226-8.631-45.159-15.315-68.542-19.976
		c8.059-31.002,12.381-62.857,12.874-94.885h90.723C478.718,296.661,466.627,336.28,445.045,370.819z M228.428,478.612
		c-6.421-6.555-13.827-12.066-21.95-16.334c-3.947-2.296-7.672-4.476-11.041-6.887c-6.65-4.17-11.18-11.005-12.428-18.754
		c0.461-4.921,2.028-9.675,4.583-13.907c1.912-3.963,3.322-8.149,4.195-12.461c0.54-3.86,1.983-7.538,4.212-10.735
		c2.407-2.221,5.207-3.971,8.258-5.161c3.46-1.519,6.744-3.411,9.794-5.64c6.544-5.294,11.996-11.809,16.054-19.183
		c1.982-3.435,3.675-7.193,5.318-10.826c1.6-3.642,3.4-7.193,5.393-10.636v131.303C236.587,479.234,232.458,478.975,228.428,478.612
		z M258.677,17.498c0.223,0.058,0.462,0.116,0.685,0.157c40.952,7.556,76.172,52.026,96.116,114.011
		c-32.445,5.389-65.259,8.261-98.147,8.588V17.341h0.264C257.926,17.407,258.305,17.432,258.677,17.498z M257.331,156.696
		c34.474-0.267,68.872-3.271,102.871-8.985c7.86,29.963,12.101,60.759,12.635,91.731H257.331V156.696z M240.815,17.415v15.302
		c-1.14,0.099-2.287,0.182-3.402,0.289c-3.97,0.472-7.969,0.659-11.966,0.562c-9.872-0.538-19.291-4.311-26.806-10.735
		C212.502,19.733,226.62,17.92,240.815,17.415z M240.815,251.771l-2.081-1.553c-11.834-8.737-19.596-15.187-19.596-24.865
		c0.007-4.52,2.823-8.56,7.061-10.133c3.427-1.338,6.483-0.107,12.04,2.345c0.892,0.396,1.709,0.718,2.577,1.082V251.771z
		 M257.331,478.042V355.137c33.022,0.322,65.969,3.207,98.543,8.63c-20.249,63.529-56.485,107.867-98.543,114.283V478.042z
		 M257.331,338.687v-44.04c0.033-0.398,0.033-0.799,0-1.197v-37.492h115.497c-0.469,30.961-4.599,61.757-12.305,91.747
		c-34.104-5.74-68.61-8.752-103.193-9.01V338.687z M389.353,239.442c-0.486-32.048-4.766-63.926-12.75-94.968
		c23.112-4.613,45.788-11.188,67.782-19.654c21.845,34.36,34.162,73.91,35.691,114.597L389.353,239.442z M434.879,110.963
		c-20.455,7.527-41.478,13.412-62.869,17.598c-13.964-44.445-35.51-80.64-61.935-103.176
		C360.073,39.159,404.013,69.288,434.879,110.963z M180.366,27.746c10.939,13.346,27.011,21.445,44.247,22.297
		c1.016,0.05,2.015,0.074,3.014,0.074c3.881,0,7.63-0.347,11.297-0.694c0.644-0.058,1.214-0.058,1.85-0.116v151.42
		c-6.457-3.051-13.87-3.379-20.571-0.908c-10.626,4.039-17.643,14.232-17.623,25.6c0,18.647,14.592,29.415,26.31,38.061
		c1.47,1.09,2.94,2.172,4.311,3.212c2.843,2.498,5.397,5.307,7.614,8.374v11.512c-16.913-4.261-33.858-8.531-50.87-12.643
		c-14.039-3.386-28.185-7.564-33.957-17.961c-2.215-4.703-3.705-9.715-4.418-14.865c-1.046-8.174-3.917-16.009-8.398-22.924
		c-8.575-9.459-20.075-15.769-32.661-17.92l-1.354-0.388c-7.829-2.387-18.572-6.45-21.529-14.039
		c-1.375-7.569-0.131-15.38,3.526-22.148c4.67-9.711,6.233-20.625,4.476-31.257c-1.853-8.183-7.321-15.082-14.865-18.754
		c-5.485-2.509-11.538-3.515-17.54-2.915C92.364,71.251,133.43,42.148,180.366,27.746z M17.847,248.36
		c0.008-33.734,7.352-67.062,21.521-97.676l0.636-1.354c2.236-5.934,5.582-11.389,9.86-16.07c1.523-1.525,3.326-2.741,5.31-3.584
		c3.582-1.627,7.462-2.493,11.396-2.543c2.412-0.053,4.806,0.426,7.011,1.404c3.138,1.58,5.366,4.527,6.028,7.977
		c0.731,7.42-0.661,14.894-4.013,21.554c-5.303,10.431-6.531,22.464-3.444,33.751c5.599,14.328,21.017,20.497,32.264,23.948
		l1.528,0.438c9.009,1.384,17.364,5.537,23.907,11.883c2.94,4.983,4.8,10.529,5.459,16.277c0.999,6.843,3.09,13.482,6.194,19.662
		c9.753,17.581,31.505,22.842,44.494,25.988c18.069,4.368,36.129,8.902,54.123,13.444l0.636,0.14v21.892
		c-3.086,1.526-5.88,3.58-8.258,6.07c-5.129,6.093-9.22,12.99-12.106,20.414c-1.536,3.419-2.998,6.606-4.558,9.365
		c-2.993,5.512-7.023,10.393-11.867,14.377c-2.133,1.488-4.41,2.758-6.796,3.79c-5.027,2.036-9.587,5.073-13.403,8.927
		c-4.203,5.166-6.974,11.346-8.035,17.92c-0.588,3.024-1.534,5.968-2.816,8.77c-3.851,6.569-6.055,13.973-6.425,21.578
		c0.916,13.173,8.097,25.105,19.307,32.083c1.734,1.247,3.518,2.387,5.293,3.501C88.905,446.086,17.547,353.853,17.847,248.36z
		 M404.465,419.542c-27.682,25.166-61.077,43.212-97.297,52.579c27.442-22.346,50.143-59.417,64.694-105.348
		c21.735,4.233,43.087,10.237,63.843,17.953C426.497,397.358,416.03,409.024,404.465,419.542z"/>
</g>
<g>
</g>
<g>
</g>
<g>
</g>
<g>
</g>
<g>
</g>
<g>
</g>
<g>
</g>
<g>
</g>
<g>
</g>
<g>
</g>
<g>
</g>
<g>
</g>
<g>
</g>
<g>
</g>
<g>
</g>
</svg>
