<?xml version="1.0" encoding="iso-8859-1"?>
<!-- Generator: Adobe Illustrator 19.0.0, SVG Export Plug-In . SVG Version: 6.00 Build 0)  -->
<svg version="1.1" id="Capa_1" xmlns="http://www.w3.org/2000/svg" xmlns:xlink="http://www.w3.org/1999/xlink" x="0px" y="0px"
	 viewBox="0 0 512.022 512.022" style="enable-background:new 0 0 512.022 512.022;" xml:space="preserve">
<g transform="translate(-1)">
	<g transform="translate(1 1)">
		<polygon style="fill:#E3E7F2;" points="309.481,425.678 256.011,425.678 202.541,425.678 179.211,502.478 256.011,502.478 
			332.811,502.478 		"/>
		<path style="fill:#7FACFA;" d="M503.478,60.366v331.179c0.384,9.85-7.222,18.179-17.067,18.688h-460.8
			c-9.845-0.509-17.451-8.838-17.067-18.688V60.366c-0.364-9.684,6.979-17.93,16.64-18.688h461.227
			C496.256,42.187,503.862,50.515,503.478,60.366z"/>
		<path style="fill:#E3E7F2;" d="M477.878,60.366v331.179c0.384,9.85-7.222,18.179-17.067,18.688h-435.2
			c-9.845-0.509-17.451-8.838-17.067-18.688V60.366c-0.364-9.684,6.979-17.93,16.64-18.688h435.627
			C470.656,42.187,478.262,50.515,477.878,60.366z"/>
		<path style="fill:#7FACFA;" d="M503.478,365.944v49.579c0.384,9.85-7.222,18.179-17.067,18.688h-460.8
			c-9.845-0.509-17.451-8.838-17.067-18.688v-49.579H503.478z"/>
		
			<linearGradient id="SVGID_1_" gradientUnits="userSpaceOnUse" x1="-48.6654" y1="651.481" x2="-48.1036" y2="647.6182" gradientTransform="matrix(469.4028 0 0 -68.2667 22955.0684 44737.5664)">
			<stop  offset="0" style="stop-color:#D4E1F4"/>
			<stop  offset="0.1717" style="stop-color:#D4E1F4"/>
			<stop  offset="0.2" style="stop-color:#D4E1F4"/>
			<stop  offset="0.2001" style="stop-color:#DAE4F4"/>
			<stop  offset="0.2007" style="stop-color:#EBEBF4"/>
			<stop  offset="0.2014" style="stop-color:#F6F1F4"/>
			<stop  offset="0.2023" style="stop-color:#FDF4F4"/>
			<stop  offset="0.205" style="stop-color:#FFF5F4"/>
			<stop  offset="0.2522" style="stop-color:#FFF5F4"/>
			<stop  offset="0.26" style="stop-color:#FFF5F4"/>
			<stop  offset="0.26" style="stop-color:#D4E1F4"/>
			<stop  offset="0.3974" style="stop-color:#D4E1F4"/>
			<stop  offset="0.42" style="stop-color:#D4E1F4"/>
			<stop  offset="0.4201" style="stop-color:#DAE4F4"/>
			<stop  offset="0.4207" style="stop-color:#EBEBF4"/>
			<stop  offset="0.4214" style="stop-color:#F6F1F4"/>
			<stop  offset="0.4223" style="stop-color:#FDF4F4"/>
			<stop  offset="0.425" style="stop-color:#FFF5F4"/>
			<stop  offset="0.4894" style="stop-color:#FFF5F4"/>
			<stop  offset="0.5" style="stop-color:#FFF5F4"/>
			<stop  offset="0.5" style="stop-color:#F9F2F4"/>
			<stop  offset="0.5001" style="stop-color:#E8EBF4"/>
			<stop  offset="0.5003" style="stop-color:#DDE5F4"/>
			<stop  offset="0.5005" style="stop-color:#D6E2F4"/>
			<stop  offset="0.501" style="stop-color:#D4E1F4"/>
			<stop  offset="0.7062" style="stop-color:#D4E1F4"/>
			<stop  offset="0.74" style="stop-color:#D4E1F4"/>
			<stop  offset="0.741" style="stop-color:#FFF5F4"/>
			<stop  offset="0.8346" style="stop-color:#FFF5F4"/>
			<stop  offset="0.85" style="stop-color:#FFF5F4"/>
			<stop  offset="0.851" style="stop-color:#D4E1F4"/>
		</linearGradient>
		<path style="fill:url(#SVGID_1_);" d="M477.878,365.944v49.579c0.598,9.598-6.599,17.909-16.184,18.688H24.728
			c-9.585-0.779-16.782-9.09-16.184-18.688v-49.579H477.878z"/>
		<path style="fill:#7FACFA;" d="M332.811,41.678v128c0.002,9.053-3.593,17.737-9.995,24.139
			c-6.402,6.402-15.085,9.997-24.139,9.995h-25.6c9.053,0.002,17.737-3.593,24.139-9.995c6.402-6.402,9.997-15.085,9.995-24.139
			v-128c0.003-9.054-3.593-17.737-9.995-24.139s-15.085-9.997-24.139-9.995l25.6,0c9.054-0.003,17.737,3.593,24.139,9.995
			C329.218,23.941,332.814,32.624,332.811,41.678z"/>
		<path style="fill:#E3E7F2;" d="M307.211,41.678v128c0.002,9.053-3.593,17.737-9.995,24.139
			c-6.402,6.402-15.085,9.997-24.139,9.995H162.144l-59.733,59.733v-59.733h-8.533c-23.561-0.009-42.658-19.106-42.667-42.667
			V41.678c-0.003-9.054,3.593-17.737,9.995-24.139c6.402-6.402,15.085-9.997,24.139-9.995h187.733
			c9.053-0.003,17.737,3.593,24.139,9.995S307.214,32.624,307.211,41.678z"/>
	</g>
	<g transform="translate(1 5)">
		<path style="fill:#FFFFFF;" d="M34.144,411.523c-0.607,9.612,6.612,17.933,16.213,18.688h-25.6
			c-9.602-0.755-16.821-9.076-16.213-18.688V56.366c-0.364-9.684,6.979-17.93,16.64-18.688h25.6
			c-9.661,0.758-17.004,9.004-16.64,18.688V411.523z"/>
		<polygon style="fill:#FFFFFF;" points="225.547,430.211 204.811,498.478 179.211,498.478 199.947,430.211 		"/>
	</g>
	<g>
		<polygon style="fill:#FFFFFF;" points="18.078,61.366 18.078,172.299 18.078,366.944 1.011,366.944 1.011,172.299 1.011,61.366 		
			"/>
		<g>
			<path style="fill:#428DFF;" d="M9.544,138.166c2.259-0.034,4.422-0.918,6.059-2.475c3.3-3.365,3.3-8.752,0-12.117l-1.279-1.025
				c-0.476-0.324-0.993-0.583-1.538-0.771c-0.484-0.246-1.003-0.417-1.538-0.509c-0.563-0.096-1.133-0.153-1.704-0.171
				c-2.259,0.031-4.423,0.915-6.059,2.475c-3.222,3.397-3.222,8.721,0,12.117c0.815,0.771,1.77,1.379,2.813,1.792
				C7.325,137.921,8.428,138.153,9.544,138.166z"/>
			<path style="fill:#428DFF;" d="M487.411,34.144H341.482c-4.08-19.85-21.539-34.105-41.804-34.133H86.344
				C66.08,0.039,48.62,14.294,44.54,34.144H26.611c-14.573,0.478-26.017,12.646-25.6,27.221v0.001v34.133
				c0,4.713,3.821,8.533,8.533,8.533s8.533-3.821,8.533-8.533V61.366v-0.001c-0.338-5.125,3.427-9.605,8.533-10.154h17.067v110.933
				c0.031,28.264,22.936,51.169,51.2,51.2v42.667h-8.533c-4.713,0-8.533,3.82-8.533,8.533s3.821,8.533,8.533,8.533h110.933
				c4.713,0,8.533-3.821,8.533-8.533s-3.821-8.533-8.533-8.533h-73.267l42.667-42.667h133c23.553-0.028,42.639-19.114,42.667-42.667
				V51.211h145.067c5.107,0.55,8.871,5.029,8.533,10.154v297.046H18.078V163.766c0-4.713-3.821-8.533-8.533-8.533
				s-8.533,3.82-8.533,8.533v252.758c-0.417,14.574,11.027,26.743,25.6,27.221H191.61l-17.5,51.2h-10.965
				c-4.713,0-8.533,3.82-8.533,8.533s3.821,8.533,8.533,8.533h187.733c4.713,0,8.533-3.82,8.533-8.533s-3.82-8.533-8.533-8.533
				h-10.965l-17.5-51.2h164.999c14.573-0.478,26.017-12.646,25.6-27.221V61.365C513.428,46.791,501.984,34.622,487.411,34.144z
				 M325.278,170.678c-0.015,14.132-11.468,25.585-25.6,25.6H163.144c-2.263,0.001-4.433,0.9-6.033,2.5l-45.167,45.166v-39.133
				c0-4.713-3.821-8.533-8.533-8.533h-8.533c-18.842-0.022-34.112-15.291-34.133-34.133V42.678
				c0.015-14.132,11.468-25.585,25.6-25.6h213.333c14.132,0.015,25.585,11.468,25.6,25.6V170.678z M321.878,494.944H192.144
				l17.5-51.2h94.733L321.878,494.944z M487.411,426.678h-460.8c-5.107-0.55-8.871-5.029-8.533-10.154v-41.046h477.867v41.046
				C496.282,421.649,492.518,426.128,487.411,426.678z"/>
			<path style="fill:#428DFF;" d="M135.044,62.245c-1.6-1.601-3.77-2.5-6.033-2.5s-4.433,0.899-6.033,2.5L88.844,96.378
				c-1.601,1.6-2.5,3.77-2.5,6.033s0.899,4.433,2.5,6.033l34.133,34.133c3.332,3.332,8.735,3.332,12.067,0
				c3.332-3.332,3.332-8.735,0-12.067l-28.1-28.1l28.1-28.1c1.6-1.6,2.5-3.77,2.499-6.033S136.645,63.844,135.044,62.245z"/>
			<path style="fill:#428DFF;" d="M163.144,59.744c-4.713,0-8.533,3.821-8.533,8.533v42.667c0,4.713,3.821,8.533,8.533,8.533
				s8.533-3.821,8.533-8.533V68.278C171.678,63.565,167.857,59.744,163.144,59.744z"/>
			<path style="fill:#428DFF;" d="M159.899,128.69c-1.033,0.434-1.984,1.041-2.813,1.796c-1.559,1.635-2.443,3.799-2.475,6.059
				c0.013,0.572,0.071,1.141,0.171,1.704c0.091,0.535,0.263,1.053,0.508,1.538c0.17,0.525,0.431,1.015,0.771,1.45
				c0.293,0.49,0.636,0.949,1.025,1.367c0.83,0.752,1.781,1.358,2.813,1.792c1.027,0.438,2.13,0.67,3.246,0.683
				c2.259-0.034,4.422-0.918,6.059-2.475c0.341-0.429,0.683-0.854,1.021-1.367c0.34-0.435,0.601-0.925,0.771-1.45
				c0.245-0.485,0.418-1.003,0.513-1.538c0.098-0.563,0.155-1.133,0.17-1.704c-0.033-2.259-0.917-4.422-2.475-6.059
				C166.709,128.139,163.086,127.44,159.899,128.69z"/>
			<path style="fill:#428DFF;" d="M222.878,93.878h-25.6c-4.713,0-8.533,3.821-8.533,8.533c0,4.713,3.821,8.533,8.533,8.533h25.6
				c4.713,0,8.533-3.821,8.533-8.533C231.411,97.698,227.591,93.878,222.878,93.878z"/>
			<path style="fill:#428DFF;" d="M282.611,93.878h-25.6c-4.713,0-8.533,3.821-8.533,8.533c0,4.713,3.821,8.533,8.533,8.533h25.6
				c4.713,0,8.533-3.821,8.533-8.533C291.144,97.698,287.324,93.878,282.611,93.878z"/>
			<path style="fill:#428DFF;" d="M43.678,273.078h8.533c4.713,0,8.533-3.821,8.533-8.533s-3.821-8.533-8.533-8.533h-8.533
				c-4.713,0-8.533,3.82-8.533,8.533S38.965,273.078,43.678,273.078z"/>
			<path style="fill:#428DFF;" d="M43.678,307.211h8.533c4.713,0,8.533-3.821,8.533-8.533c0-4.713-3.821-8.533-8.533-8.533h-8.533
				c-4.713,0-8.533,3.821-8.533,8.533C35.144,303.391,38.965,307.211,43.678,307.211z"/>
			<path style="fill:#428DFF;" d="M43.678,341.344h8.533c4.713,0,8.533-3.821,8.533-8.533c0-4.713-3.821-8.533-8.533-8.533h-8.533
				c-4.713,0-8.533,3.821-8.533,8.533C35.144,337.524,38.965,341.344,43.678,341.344z"/>
			<path style="fill:#428DFF;" d="M291.144,256.011h-59.733c-4.713,0-8.533,3.82-8.533,8.533s3.821,8.533,8.533,8.533h59.733
				c4.713,0,8.533-3.821,8.533-8.533S295.857,256.011,291.144,256.011z"/>
			<path style="fill:#428DFF;" d="M350.878,256.011h-25.6c-4.713,0-8.533,3.82-8.533,8.533s3.82,8.533,8.533,8.533h25.6
				c4.713,0,8.533-3.821,8.533-8.533S355.591,256.011,350.878,256.011z"/>
			<path style="fill:#428DFF;" d="M419.144,256.011h-34.133c-4.713,0-8.533,3.82-8.533,8.533s3.82,8.533,8.533,8.533h34.133
				c4.713,0,8.533-3.821,8.533-8.533S423.857,256.011,419.144,256.011z"/>
			<path style="fill:#428DFF;" d="M470.344,273.078c4.713,0,8.533-3.821,8.533-8.533s-3.82-8.533-8.533-8.533h-17.067
				c-4.713,0-8.533,3.82-8.533,8.533s3.821,8.533,8.533,8.533H470.344z"/>
			<path style="fill:#428DFF;" d="M163.144,290.144h-51.2c-4.713,0-8.533,3.821-8.533,8.533c0,4.713,3.821,8.533,8.533,8.533h51.2
				c4.713,0,8.533-3.821,8.533-8.533C171.678,293.965,167.857,290.144,163.144,290.144z"/>
			<path style="fill:#428DFF;" d="M188.744,298.678c0,4.713,3.821,8.533,8.533,8.533h42.667c4.713,0,8.533-3.821,8.533-8.533
				c0-4.713-3.82-8.533-8.533-8.533h-42.667C192.565,290.144,188.744,293.965,188.744,298.678z"/>
			<path style="fill:#428DFF;" d="M308.211,290.144h-34.133c-4.713,0-8.533,3.821-8.533,8.533c0,4.713,3.821,8.533,8.533,8.533
				h34.133c4.713,0,8.533-3.821,8.533-8.533C316.744,293.965,312.924,290.144,308.211,290.144z"/>
			<path style="fill:#428DFF;" d="M333.811,298.678c0,4.713,3.82,8.533,8.533,8.533h42.667c4.713,0,8.533-3.821,8.533-8.533
				c0-4.713-3.82-8.533-8.533-8.533h-42.667C337.632,290.144,333.811,293.965,333.811,298.678z"/>
			<path style="fill:#428DFF;" d="M410.611,298.678c0,4.713,3.82,8.533,8.533,8.533h51.2c4.713,0,8.533-3.821,8.533-8.533
				c0-4.713-3.82-8.533-8.533-8.533h-51.2C414.432,290.144,410.611,293.965,410.611,298.678z"/>
			<path style="fill:#428DFF;" d="M77.811,332.811c0,4.713,3.821,8.533,8.533,8.533h34.133c4.713,0,8.533-3.821,8.533-8.533
				c0-4.713-3.821-8.533-8.533-8.533H86.344C81.632,324.278,77.811,328.098,77.811,332.811z"/>
			<path style="fill:#428DFF;" d="M154.611,324.278c-4.713,0-8.533,3.821-8.533,8.533c0,4.713,3.82,8.533,8.533,8.533h34.133
				c4.713,0,8.533-3.821,8.533-8.533c0-4.713-3.821-8.533-8.533-8.533H154.611z"/>
			<path style="fill:#428DFF;" d="M222.878,324.278c-4.713,0-8.533,3.821-8.533,8.533c0,4.713,3.821,8.533,8.533,8.533h42.667
				c4.713,0,8.533-3.821,8.533-8.533c0-4.713-3.821-8.533-8.533-8.533H222.878z"/>
			<path style="fill:#428DFF;" d="M291.144,332.811c0,4.713,3.821,8.533,8.533,8.533h25.6c4.713,0,8.533-3.821,8.533-8.533
				c0-4.713-3.821-8.533-8.533-8.533h-25.6C294.965,324.278,291.144,328.098,291.144,332.811z"/>
			<path style="fill:#428DFF;" d="M359.411,324.278c-4.713,0-8.533,3.821-8.533,8.533c0,4.713,3.82,8.533,8.533,8.533h51.2
				c4.713,0,8.533-3.821,8.533-8.533c0-4.713-3.82-8.533-8.533-8.533H359.411z"/>
			<path style="fill:#428DFF;" d="M470.344,324.278h-25.6c-4.713,0-8.533,3.821-8.533,8.533c0,4.713,3.82,8.533,8.533,8.533h25.6
				c4.713,0,8.533-3.821,8.533-8.533C478.878,328.098,475.057,324.278,470.344,324.278z"/>
		</g>
	</g>
</g>
<g>
</g>
<g>
</g>
<g>
</g>
<g>
</g>
<g>
</g>
<g>
</g>
<g>
</g>
<g>
</g>
<g>
</g>
<g>
</g>
<g>
</g>
<g>
</g>
<g>
</g>
<g>
</g>
<g>
</g>
</svg>
