<?xml version="1.0" encoding="iso-8859-1"?>
<!-- Generator: Adobe Illustrator 19.0.0, SVG Export Plug-In . SVG Version: 6.00 Build 0)  -->
<svg version="1.1" id="Capa_1" xmlns="http://www.w3.org/2000/svg" xmlns:xlink="http://www.w3.org/1999/xlink" x="0px" y="0px"
	 viewBox="0 0 503.704 503.704" style="enable-background:new 0 0 503.704 503.704;" xml:space="preserve">
<g transform="translate(0 -1)">
	<g transform="translate(2 2)">
		<path style="fill:#A4C2F7;" d="M492.359,55.06c-4.449,64.294-27.698,173.325-133.791,179.2
			c-12.422,0.671-23.921,1.511-34.665,2.602h-0.084l-1.427-1.93L209.92,85.024c20.728-27.487,49.152-48.2,81.668-59.509
			c37.435-14.017,95.937-17.626,140.17-17.962h0.588c34.581-0.336,60.349,1.259,60.349,1.259
			C493.606,24.218,493.493,39.668,492.359,55.06z"/>
		<path style="fill:#E3E7F2;" d="M467.179,55.06c-4.449,64.294-27.698,173.325-133.791,179.2c-3.777,0.168-7.386,0.42-10.995,0.671
			L209.92,85.024c20.728-27.487,49.152-48.2,81.668-59.509c37.435-14.017,95.937-17.626,140.17-17.962h0.588
			c21.151,0.42,35.169,1.259,35.169,1.259C468.425,24.218,468.313,39.668,467.179,55.06z"/>
		<path style="fill:#A4C2F7;" d="M320.881,317.103c-0.935,5.961-2.167,11.872-3.693,17.71c-3.149-3.394-6.871-6.206-10.995-8.31
			c-3.606-2.095-7.334-3.973-11.163-5.624c-22.914-10.24-68.071-23.082-153.852-27.866C-9.737,284.704,7.05,67.566,7.05,67.566
			s15.192-0.923,37.854-1.259c44.737-0.588,118.767,1.343,163.252,17.962c34.51,11.877,64.327,34.461,85.109,64.462
			c3.218,4.693,6.161,9.57,8.813,14.605C332.548,219.991,326.337,286.131,320.881,317.103z"/>
		<path style="fill:#E3E7F2;" d="M295.701,317.103c-0.252,1.343-0.42,2.602-0.671,3.777c-22.914-10.24-68.071-23.082-153.852-27.866
			C-9.737,284.704,7.05,67.566,7.05,67.566s15.192-0.923,37.854-1.259c43.898,0.504,101.225,4.197,138.072,17.962
			c34.51,11.877,64.327,34.461,85.109,64.462c3.218,4.693,6.161,9.57,8.813,14.605C307.368,219.991,301.156,286.131,295.701,317.103
			z"/>
		<g>
			<path style="fill:#FFFFFF;" d="M141.177,293.014c85.781,4.784,130.938,17.626,153.852,27.866
				c3.83,1.651,7.557,3.529,11.163,5.624c4.124,2.103,7.846,4.916,10.995,8.31c0,0,1.435-5.086,3.038-13.925
				c-22.914-10.24-68.071-23.082-153.852-27.866C15.444,284.704,32.231,67.566,32.231,67.566s15.192-0.923,37.854-1.259h0.554
				c-9.241-0.084-17.954-0.084-25.734,0C22.242,66.643,7.05,67.566,7.05,67.566S-9.737,284.704,141.177,293.014z"/>
			<path style="fill:#FFFFFF;" d="M235.117,85.007c20.724-27.481,49.142-48.187,81.651-59.493
				c36.713-13.748,93.654-17.475,137.56-17.928c-6.715-0.084-14.118-0.109-21.982,0h-0.588
				c-44.233,0.336-102.736,3.945-140.17,17.962c-29.84,10.486-56.297,28.83-76.582,53.097c6.207,1.559,12.326,3.447,18.331,5.657
				C233.925,84.495,234.504,84.772,235.117,85.007z"/>
		</g>
	</g>
	<g>
		<polygon style="fill:#FFFFFF;" points="327.565,336.821 327.472,445.936 327.439,487.903 310.652,487.887 310.685,445.919 
			310.778,336.805 		"/>
		<g>
			<path style="fill:#428DFF;" d="M319.096,429.141c-4.636,0-8.393,3.758-8.393,8.393v33.515v0.059v25.18
				c0,4.636,3.758,8.393,8.393,8.393s8.393-3.758,8.393-8.393v-8.393l0.042-50.361c0-2.233-0.89-4.375-2.473-5.95
				C323.475,430.009,321.329,429.13,319.096,429.141z"/>
			<path style="fill:#428DFF;" d="M325.08,398.01l-1.259-1.016c-0.468-0.318-0.976-0.572-1.511-0.755
				c-0.478-0.244-0.99-0.414-1.519-0.504c-0.555-0.094-1.116-0.15-1.679-0.168c-2.221,0.029-4.349,0.896-5.959,2.426
				c-3.168,3.341-3.168,8.577,0,11.919c0.804,0.759,1.744,1.359,2.77,1.771c1.01,0.427,2.093,0.655,3.19,0.671
				c3.409,0.023,6.494-2.018,7.805-5.165c1.311-3.147,0.588-6.775-1.829-9.179H325.08z"/>
			<path style="fill:#428DFF;" d="M142.665,303.432c123.384,6.832,160.415,30.678,168.104,36.931v30.032
				c0,4.636,3.758,8.393,8.393,8.393c4.636,0,8.393-3.758,8.393-8.393v-32.516c6.919-29.943,9.293-60.756,7.042-91.405
				c8.049-0.705,16.787-1.309,26.439-1.83C473.51,238.408,498.086,124.803,502.736,57.63c1.17-15.802,1.279-31.665,0.327-47.482
				c-0.331-4.167-3.676-7.455-7.848-7.714c-5.54-0.344-136.679-8.209-204.565,17.215c-31.91,11.286-60.1,31.133-81.484,57.369
				C140.24,53.333,13.952,60.845,8.463,61.181c-4.177,0.26-7.525,3.557-7.848,7.73C0.262,73.947-8.19,192.891,50.43,259.854
				C73.749,286.612,107.187,302.41,142.665,303.432z M296.526,35.371c55.632-20.866,161.238-17.844,190.17-16.56
				c0.26,7.814,0.403,21.294-0.713,37.67c-4.255,61.641-26.271,165.88-125.902,171.394c-9.98,0.546-18.978,1.175-27.312,1.905
				c-2.885-21.617-9.115-42.653-18.466-62.355C406.79,130.578,450.025,67.249,451.871,64.488c2.545-3.854,1.499-9.04-2.341-11.605
				c-3.84-2.566-9.032-1.547-11.617,2.28c-34.074,44.037-79.689,77.765-131.777,97.439c-19.061-30.877-47.291-55.031-80.745-69.086
				C244.577,61.628,269.075,45.047,296.526,35.371z M17.049,77.556c28.957-1.267,134.505-4.239,190.212,16.569
				c36.795,12.544,67.879,37.854,87.619,71.344c0,0.143,0,0.285,0.067,0.428c0.401,1.04,1.013,1.986,1.796,2.778
				c11.344,21.384,18.468,44.751,20.984,68.826c-0.127,0.445-0.217,0.9-0.269,1.36c0.008,1.181,0.271,2.346,0.772,3.416
				c1.859,20.529,1.417,41.202-1.318,61.633c-18.201-40.779-53.329-71.555-96.147-84.237
				c-61.478-18.109-115.696-55.11-154.968-105.757c-2.586-3.827-7.777-4.846-11.617-2.28c-3.84,2.566-4.886,7.752-2.341,11.605
				c2.124,3.181,53.298,78.412,163.991,112.472c40.4,12.018,73.02,41.963,88.442,81.19c-23.241-11.155-69.741-25.18-160.667-30.216
				c-30.933-0.84-60.11-14.556-80.493-37.838C17.032,196.248,16.243,104.13,17.049,77.556z"/>
		</g>
	</g>
</g>
<g>
</g>
<g>
</g>
<g>
</g>
<g>
</g>
<g>
</g>
<g>
</g>
<g>
</g>
<g>
</g>
<g>
</g>
<g>
</g>
<g>
</g>
<g>
</g>
<g>
</g>
<g>
</g>
<g>
</g>
</svg>
