<?xml version="1.0" encoding="iso-8859-1"?>
<!-- Generator: Adobe Illustrator 19.0.0, SVG Export Plug-In . SVG Version: 6.00 Build 0)  -->
<svg version="1.1" id="Capa_1" xmlns="http://www.w3.org/2000/svg" xmlns:xlink="http://www.w3.org/1999/xlink" x="0px" y="0px"
	 viewBox="0 0 512 512" style="enable-background:new 0 0 512 512;" xml:space="preserve">
<g>
	<g transform="translate(5 1)">
		<path style="fill:#A4C2F7;" d="M464.333,20.76v263.68c0.046,3.463-1.286,6.802-3.703,9.282s-5.72,3.899-9.182,3.944h-348.16
			c-3.463-0.045-6.766-1.464-9.182-3.944c-2.417-2.481-3.749-5.82-3.703-9.282V20.76c-0.046-3.463,1.286-6.802,3.703-9.282
			c2.417-2.481,5.72-3.899,9.182-3.944h348.16c3.463,0.045,6.766,1.464,9.182,3.944S464.379,17.297,464.333,20.76z"/>
		<path style="fill:#E3E7F2;" d="M438.733,20.76v263.68c0.046,3.463-1.286,6.802-3.703,9.282s-5.72,3.899-9.182,3.944h-322.56
			c-0.775-0.001-1.548-0.087-2.304-0.256c-0.673-0.09-1.332-0.262-1.963-0.512c-0.085,0-0.171-0.085-0.341-0.085
			c-0.66-0.275-1.289-0.618-1.877-1.024c-0.65-0.348-1.252-0.778-1.792-1.28c-2.949-2.51-4.636-6.197-4.608-10.069V20.76
			c-0.023-3.201,1.131-6.298,3.243-8.704c1.277-1.488,2.885-2.656,4.693-3.413c0.676-0.344,1.393-0.602,2.133-0.768
			c0.919-0.239,1.866-0.354,2.816-0.341h322.56c3.463,0.045,6.766,1.464,9.182,3.944S438.779,17.297,438.733,20.76z"/>
		<path style="fill:#A4C2F7;" d="M438.733,31.597V20.76c0.046-3.463-1.286-6.802-3.703-9.282s-5.72-3.899-9.182-3.944h25.6
			c3.722,0.019,7.248,1.673,9.643,4.523L438.733,31.597z"/>
		<path style="fill:#E3E7F2;" d="M438.733,20.76v10.837L316.877,138.093l-0.171,0.085l-26.88,23.552
			c-7.17,6.143-17.747,6.143-24.917,0l-27.136-23.723L93.645,12.056c1.277-1.488,2.885-2.656,4.693-3.413
			c0.676-0.344,1.393-0.602,2.133-0.768c0.919-0.239,1.866-0.354,2.816-0.341h322.56c3.463,0.045,6.766,1.464,9.182,3.944
			S438.779,17.297,438.733,20.76z"/>
		<path style="fill:#A4C2F7;" d="M459.725,294.509c-2.28,2.03-5.225,3.154-8.277,3.157h-25.6c3.463-0.045,6.766-1.464,9.182-3.944
			s3.749-5.82,3.703-9.282v-12.971L459.725,294.509z"/>
		<path style="fill:#E3E7F2;" d="M438.733,271.469v12.971c0.046,3.463-1.286,6.802-3.703,9.282s-5.72,3.899-9.182,3.944h-322.56
			c-0.775-0.001-1.548-0.087-2.304-0.256c-0.673-0.09-1.332-0.262-1.963-0.512c-0.085,0-0.171-0.085-0.341-0.085
			c-0.66-0.275-1.289-0.618-1.877-1.024c-0.65-0.348-1.252-0.778-1.792-1.28l142.763-156.501l27.136,23.723
			c7.17,6.143,17.747,6.143,24.917,0l27.051-23.723v0.085L438.733,271.469z"/>
		<path style="fill:#A4C2F7;" d="M411.597,225.56v263.68c0.046,3.463-1.286,6.802-3.703,9.282c-2.417,2.481-5.72,3.899-9.182,3.944
			H50.552c-3.463-0.045-6.766-1.464-9.182-3.944c-2.417-2.481-3.749-5.82-3.703-9.282V225.56c-0.046-3.463,1.286-6.802,3.703-9.282
			c2.417-2.481,5.72-3.899,9.182-3.944h348.16c3.463,0.045,6.766,1.464,9.182,3.944C410.311,218.758,411.643,222.097,411.597,225.56
			z"/>
		<path style="fill:#E3E7F2;" d="M385.997,225.56v263.68c0.046,3.463-1.286,6.802-3.703,9.282c-2.417,2.481-5.72,3.899-9.182,3.944
			H50.552c-3.053-0.004-5.998-1.127-8.277-3.157c-2.949-2.51-4.636-6.197-4.608-10.069V225.56c-0.023-3.201,1.131-6.298,3.243-8.704
			c0.59-0.689,1.248-1.318,1.963-1.877c0.617-0.524,1.307-0.955,2.048-1.28c0.085-0.085,0.171-0.085,0.341-0.171
			c0.792-0.373,1.621-0.659,2.475-0.853c0.919-0.239,1.866-0.354,2.816-0.341h322.56c3.463,0.045,6.766,1.464,9.182,3.944
			C384.711,218.758,386.043,222.097,385.997,225.56z"/>
		<path style="fill:#A4C2F7;" d="M385.997,236.397V225.56c0.046-3.463-1.286-6.802-3.703-9.282c-2.417-2.481-5.72-3.899-9.182-3.944
			h25.6c3.722,0.019,7.248,1.673,9.643,4.523L385.997,236.397z"/>
		<path style="fill:#E3E7F2;" d="M385.997,225.56v10.837L264.141,342.893l-27.051,23.637c-7.17,6.143-17.747,6.143-24.917,0
			l-27.136-23.723L40.909,216.856c0.59-0.689,1.248-1.318,1.963-1.877c0.617-0.524,1.307-0.955,2.048-1.28
			c0.085-0.085,0.171-0.085,0.341-0.171c0.792-0.373,1.621-0.659,2.475-0.853c0.919-0.239,1.866-0.354,2.816-0.341h322.56
			c3.463,0.045,6.766,1.464,9.182,3.944C384.711,218.758,386.043,222.097,385.997,225.56z"/>
		<path style="fill:#A4C2F7;" d="M406.989,499.309c-2.28,2.03-5.225,3.154-8.277,3.157h-25.6c3.463-0.045,6.766-1.464,9.182-3.944
			c2.417-2.481,3.749-5.82,3.703-9.282v-12.971L406.989,499.309z"/>
		<path style="fill:#E3E7F2;" d="M385.997,476.269v12.971c0.046,3.463-1.286,6.802-3.703,9.282c-2.417,2.481-5.72,3.899-9.182,3.944
			H50.552c-3.053-0.004-5.998-1.127-8.277-3.157l142.763-156.501l27.136,23.723c7.17,6.143,17.747,6.143,24.917,0l27.051-23.723
			v0.085h0.085L385.997,476.269z"/>
		<g>
			<path style="fill:#FFFFFF;" d="M64.069,221.106c0.051-0.137,0.068-0.265,0.119-0.393c0.542-1.388,1.316-2.675,2.287-3.806v-0.051
				v-0.043c0.53-0.621,1.116-1.192,1.749-1.707c0.068-0.051,0.102-0.111,0.171-0.162l0.085-0.051
				c0.541-0.393,1.112-0.744,1.707-1.05c0.102-0.051,0.179-0.128,0.29-0.179c0.111-0.051,0.171-0.085,0.341-0.171
				c1.671-0.774,3.492-1.17,5.333-1.161l-25.6,0c-1.83,0.008-3.635,0.415-5.291,1.195c-0.171,0.085-0.256,0.085-0.341,0.171
				c-0.085,0.085-0.188,0.128-0.29,0.179c-0.595,0.306-1.165,0.657-1.707,1.05l-0.085,0.051c-0.068,0.051-0.102,0.111-0.171,0.162
				c-0.634,0.515-1.219,1.086-1.749,1.707v0.043v0.051c-0.971,1.131-1.745,2.417-2.287,3.806c-0.051,0.128-0.068,0.256-0.119,0.393
				c-0.528,1.415-0.814,2.91-0.845,4.42v263.68c0.006,0.95,0.109,1.896,0.307,2.825c0.068,0.299,0.179,0.563,0.256,0.853
				c0.165,0.607,0.37,1.203,0.614,1.783c0.111,0.256,0.256,0.495,0.393,0.742c0.297,0.592,0.637,1.163,1.015,1.707
				c0.111,0.154,0.239,0.299,0.358,0.444c0.483,0.618,1.023,1.189,1.613,1.707l0.051,0.06c1.081,0.941,2.313,1.694,3.644,2.227
				c0.111,0.043,0.222,0.06,0.324,0.102c1.365,0.514,2.809,0.786,4.267,0.802h25.6c-1.458-0.016-2.902-0.288-4.267-0.802
				c-0.102,0-0.213-0.06-0.324-0.102c-1.331-0.533-2.562-1.286-3.644-2.227h-0.043l-0.051-0.06c-0.59-0.517-1.13-1.089-1.613-1.707
				c-0.119-0.145-0.247-0.29-0.358-0.444c-0.379-0.544-0.718-1.114-1.015-1.707c-0.137-0.247-0.282-0.486-0.393-0.742
				c-0.244-0.58-0.449-1.176-0.614-1.783c-0.077-0.29-0.188-0.555-0.256-0.853c-0.184-0.93-0.272-1.876-0.265-2.825V225.56
				C63.28,224.041,63.551,222.534,64.069,221.106z"/>
			<path style="fill:#FFFFFF;" d="M93.688,12.013v0.043v0.051c-0.971,1.131-1.745,2.417-2.287,3.806
				c-0.051,0.128-0.068,0.256-0.119,0.393c-0.517,1.429-0.789,2.935-0.802,4.454v191.573h25.6V20.76
				c0.013-1.519,0.285-3.026,0.802-4.454c0.051-0.137,0.068-0.265,0.119-0.393c0.542-1.388,1.316-2.675,2.287-3.806v-0.051v-0.043
				c2.393-2.823,5.9-4.459,9.6-4.48h-25.6C99.588,7.554,96.081,9.191,93.688,12.013z"/>
		</g>
	</g>
	<g>
		<polygon style="fill:#FFFFFF;" points="85.333,206.336 85.333,95.403 85.333,21.76 102.4,21.76 102.4,95.403 102.4,206.336 		"/>
		<g>
			<path style="fill:#428DFF;" d="M85.333,204.8H55.637c-11.941,0.085-21.561,9.819-21.504,21.76v63.573
				c0,4.713,3.821,8.533,8.533,8.533s8.533-3.821,8.533-8.533V226.56c-0.067-2.52,1.918-4.619,4.437-4.693h349.525
				c2.52,0.074,4.504,2.173,4.437,4.693v263.68c0.067,2.52-1.918,4.619-4.437,4.693H55.637c-2.52-0.074-4.504-2.173-4.437-4.693
				v-46.507c0-4.713-3.821-8.533-8.533-8.533s-8.533,3.821-8.533,8.533v46.507c-0.057,11.941,9.563,21.675,21.504,21.76h349.525
				c11.941-0.085,21.561-9.819,21.504-21.76V307.2h29.696c11.941-0.085,21.561-9.819,21.504-21.76V230.4
				c0-4.713-3.821-8.533-8.533-8.533c-4.713,0-8.533,3.82-8.533,8.533v55.04c0.067,2.52-1.918,4.619-4.437,4.693h-29.696V226.56
				c0.057-11.941-9.563-21.675-21.504-21.76H199.799l28.1-28.1c3.234-3.348,3.188-8.671-0.104-11.962
				c-3.292-3.292-8.614-3.338-11.962-0.104L175.667,204.8H102.4v-32.597c0-4.713-3.821-8.533-8.533-8.533
				c-4.713,0-8.533,3.821-8.533,8.533V204.8z"/>
			<path style="fill:#428DFF;" d="M85.333,103.936c0,4.713,3.821,8.533,8.533,8.533c4.713,0,8.533-3.821,8.533-8.533V21.76
				c-0.067-2.52,1.918-4.619,4.437-4.693h349.525c2.52,0.074,4.504,2.173,4.437,4.693V76.8c0,4.713,3.821,8.533,8.533,8.533
				c4.713,0,8.533-3.82,8.533-8.533V21.76C477.923,9.819,468.304,0.085,456.363,0H106.837C94.896,0.085,85.277,9.819,85.333,21.76
				V103.936z"/>
			<path style="fill:#428DFF;" d="M87.808,144.128l1.28,1.024c0.476,0.323,0.992,0.581,1.536,0.768
				c0.484,0.246,1.001,0.419,1.536,0.512c0.564,0.095,1.135,0.152,1.707,0.171c2.259-0.033,4.422-0.917,6.059-2.475
				c0.771-0.816,1.38-1.772,1.792-2.816c1.287-3.183,0.586-6.825-1.792-9.301c-0.816-0.771-1.772-1.38-2.816-1.792
				c-1.026-0.437-2.128-0.669-3.243-0.683c-3.467-0.02-6.601,2.059-7.931,5.261C84.607,137.999,85.346,141.687,87.808,144.128z"/>
			<path style="fill:#428DFF;" d="M378.385,241.041L237.312,364.297c-3.943,3.492-9.872,3.492-13.815,0L82.415,241.041
				c-2.293-2.025-5.495-2.667-8.392-1.684c-2.897,0.983-5.046,3.442-5.632,6.445c-0.586,3.003,0.48,6.089,2.794,8.09l141.09,123.281
				c10.342,9.182,25.916,9.182,36.258,0l141.082-123.281c3.52-3.108,3.867-8.476,0.777-12.011
				C387.303,238.345,381.937,237.97,378.385,241.041z"/>
			<path style="fill:#428DFF;" d="M164.634,369.434L70.767,463.3c-2.218,2.143-3.108,5.315-2.327,8.299
				c0.781,2.983,3.111,5.314,6.094,6.094s6.156-0.109,8.299-2.327L176.7,381.5c3.234-3.348,3.188-8.671-0.104-11.962
				C173.304,366.246,167.982,366.2,164.634,369.434z"/>
			<path style="fill:#428DFF;" d="M284.075,369.493c-3.285,3.352-3.247,8.727,0.085,12.032l93.867,93.15
				c2.097,2.436,5.386,3.487,8.507,2.719c3.121-0.769,5.546-3.226,6.273-6.358c0.726-3.132-0.369-6.406-2.833-8.47l-93.867-93.158
				C292.755,366.123,287.379,366.161,284.075,369.493z"/>
			<path style="fill:#428DFF;" d="M441.626,37.052c-3.101-3.549-8.492-3.912-12.041-0.811L288.512,159.497
				c-3.943,3.492-9.872,3.492-13.815,0L133.615,36.241c-2.293-2.025-5.495-2.667-8.392-1.684c-2.897,0.983-5.046,3.442-5.632,6.445
				s0.48,6.089,2.794,8.09l141.09,123.281c10.342,9.182,25.916,9.182,36.258,0L440.815,49.092
				C444.364,45.991,444.727,40.601,441.626,37.052z"/>
			<path style="fill:#428DFF;" d="M34.133,418.133H76.8c4.713,0,8.533-3.821,8.533-8.533c0-4.713-3.82-8.533-8.533-8.533H34.133
				c-4.713,0-8.533,3.821-8.533,8.533C25.6,414.313,29.421,418.133,34.133,418.133z"/>
			<path style="fill:#428DFF;" d="M0,324.267c0,4.713,3.821,8.533,8.533,8.533H51.2c4.713,0,8.533-3.82,8.533-8.533
				s-3.821-8.533-8.533-8.533H8.533C3.821,315.733,0,319.554,0,324.267z"/>
			<path style="fill:#428DFF;" d="M68.267,366.933c0-4.713-3.821-8.533-8.533-8.533H17.067c-4.713,0-8.533,3.82-8.533,8.533
				s3.821,8.533,8.533,8.533h42.667C64.446,375.467,68.267,371.646,68.267,366.933z"/>
			<path style="fill:#428DFF;" d="M435.2,204.8h42.667c4.713,0,8.533-3.821,8.533-8.533s-3.82-8.533-8.533-8.533H435.2
				c-4.713,0-8.533,3.821-8.533,8.533S430.487,204.8,435.2,204.8z"/>
			<path style="fill:#428DFF;" d="M503.467,102.4H460.8c-4.713,0-8.533,3.821-8.533,8.533c0,4.713,3.82,8.533,8.533,8.533h42.667
				c4.713,0,8.533-3.821,8.533-8.533C512,106.221,508.18,102.4,503.467,102.4z"/>
			<path style="fill:#428DFF;" d="M503.467,153.6c0-4.713-3.821-8.533-8.533-8.533h-42.667c-4.713,0-8.533,3.82-8.533,8.533
				s3.82,8.533,8.533,8.533h42.667C499.646,162.133,503.467,158.313,503.467,153.6z"/>
		</g>
	</g>
</g>
<g>
</g>
<g>
</g>
<g>
</g>
<g>
</g>
<g>
</g>
<g>
</g>
<g>
</g>
<g>
</g>
<g>
</g>
<g>
</g>
<g>
</g>
<g>
</g>
<g>
</g>
<g>
</g>
<g>
</g>
</svg>
