<?xml version="1.0" encoding="iso-8859-1"?>
<!-- Generator: Adobe Illustrator 19.0.0, SVG Export Plug-In . SVG Version: 6.00 Build 0)  -->
<svg version="1.1" id="Capa_1" xmlns="http://www.w3.org/2000/svg" xmlns:xlink="http://www.w3.org/1999/xlink" x="0px" y="0px"
	 viewBox="0 0 512 512" style="enable-background:new 0 0 512 512;" xml:space="preserve">
<g>
	<g transform="translate(1 1)">
		<path style="fill:#A4C2F7;" d="M502.467,195.247V485.38c-0.028,9.414-7.653,17.039-17.067,17.067H24.6
			c-9.414-0.028-17.039-7.653-17.067-17.067V195.247l3.584-2.731l2.133,2.731H496.75l2.133-2.731L502.467,195.247z"/>
		<g>
			<path style="fill:#E3E7F2;" d="M476.867,195.247V485.38c-0.028,9.414-7.653,17.039-17.067,17.067H24.6
				c-0.57,0.016-1.141-0.012-1.707-0.085c-0.404-0.009-0.805-0.066-1.195-0.171c-4.348-0.761-8.233-3.177-10.837-6.741
				c-2.181-2.902-3.35-6.439-3.328-10.069V195.247H471.15l2.133-2.731L476.867,195.247z"/>
			<path style="fill:#E3E7F2;" d="M498.883,192.516l-2.133,2.731l-233.216,179.2h-17.067l-233.216-179.2l-2.133-2.731l81.749-63.573
				l112.469-87.296l39.339-30.549c6.054-4.779,14.596-4.779,20.651,0l39.339,30.549l112.469,87.296L498.883,192.516z"/>
		</g>
		<path style="fill:#A4C2F7;" d="M417.134,58.713v197.717l-25.6,19.712l-128,98.304h-17.067l-153.6-118.016V58.713
			c0.028-9.414,7.653-17.039,17.067-17.067h290.133C409.481,41.675,417.106,49.299,417.134,58.713z"/>
		<path style="fill:#E3E7F2;" d="M391.534,58.713v217.429l-128,98.304h-17.067l-153.6-118.016V58.713
			c0.028-9.414,7.653-17.039,17.067-17.067h264.533C383.881,41.675,391.506,49.299,391.534,58.713z"/>
		<path style="fill:#A4C2F7;" d="M499.139,495.449c-3.185,4.409-8.299,7.014-13.739,6.997l-25.6,0
			c9.414-0.028,17.039-7.653,17.067-17.067v-7.253L499.139,495.449z"/>
		<path style="fill:#E3E7F2;" d="M476.867,478.127v7.253c-0.028,9.414-7.653,17.039-17.067,17.067H24.6
			c-0.57,0.016-1.141-0.012-1.707-0.085c-0.404-0.009-0.805-0.066-1.195-0.171c-4.348-0.761-8.233-3.177-10.837-6.741
			L206.36,343.641l38.315-29.781c6.054-4.779,14.596-4.779,20.651,0l38.315,29.781L476.867,478.127z"/>
		<g>
			<path style="fill:#FFFFFF;" d="M47.299,502.191c-0.073-0.024-0.147-0.044-0.222-0.06c-0.605-0.135-1.203-0.3-1.792-0.495
				c-0.469-0.145-0.964-0.256-1.417-0.444c-0.452-0.188-1.041-0.512-1.553-0.777c-0.512-0.265-0.93-0.461-1.357-0.742
				c-0.484-0.329-0.948-0.685-1.391-1.067c-0.384-0.316-0.785-0.597-1.135-0.939c-0.464-0.461-0.897-0.951-1.297-1.468
				c-0.222-0.256-0.478-0.478-0.674-0.751c0-0.051,0-0.111-0.085-0.154c-0.895-1.257-1.616-2.629-2.142-4.079
				c-0.128-0.358-0.23-0.717-0.341-1.084c-0.479-1.54-0.735-3.141-0.759-4.753V195.247l3.584-2.731l81.749-63.573V58.713
				c0.028-9.414,7.653-17.039,17.067-17.067h-25.6c-9.414,0.028-17.039,7.653-17.067,17.067v70.229l-81.749,63.573l-3.584,2.731
				V485.38c0.024,1.613,0.28,3.213,0.759,4.753c0.111,0.367,0.213,0.725,0.341,1.084c0.526,1.45,1.247,2.822,2.142,4.079
				c0.043,0.043,0.051,0.102,0.085,0.154c0.196,0.273,0.452,0.495,0.674,0.751c0.4,0.517,0.834,1.007,1.297,1.468
				c0.35,0.341,0.751,0.623,1.135,0.939c0.443,0.382,0.907,0.738,1.391,1.067c0.427,0.282,0.853,0.495,1.357,0.742
				c0.503,0.247,1.007,0.555,1.553,0.777c0.546,0.222,0.947,0.299,1.417,0.444c0.589,0.195,1.187,0.36,1.792,0.495
				c0.075,0.016,0.149,0.036,0.222,0.06c0.39,0.105,0.791,0.162,1.195,0.171c0.566,0.073,1.136,0.102,1.707,0.085h25.6
				c-0.57,0.016-1.141-0.012-1.707-0.085C48.09,502.352,47.689,502.295,47.299,502.191z"/>
			<path style="fill:#FFFFFF;" d="M267.8,13.017l-2.475-1.92c-6.054-4.779-14.596-4.779-20.651,0l-39.339,30.549h25.6L267.8,13.017z
				"/>
		</g>
	</g>
	<g>
		<polygon style="fill:#FFFFFF;" points="0,486.38 0,375.447 0,196.247 17.067,196.247 17.067,375.447 17.067,486.38 		"/>
		<g>
			<path style="fill:#428DFF;" d="M5.291,425.964c0.484,0.247,1.001,0.419,1.536,0.512c0.564,0.095,1.135,0.152,1.707,0.171
				c2.259-0.033,4.422-0.917,6.059-2.475c0.771-0.816,1.38-1.772,1.792-2.816c1.287-3.183,0.586-6.825-1.792-9.301
				c-0.816-0.771-1.772-1.38-2.816-1.792c-1.026-0.437-2.128-0.669-3.243-0.683c-2.259,0.033-4.422,0.917-6.059,2.475
				c-3.3,3.365-3.3,8.752,0,12.117l1.28,1.024C4.231,425.519,4.747,425.777,5.291,425.964z"/>
			<path style="fill:#428DFF;" d="M511.548,194.002c-0.186-1.037-0.659-2.001-1.365-2.782c-0.331-0.474-0.708-0.915-1.126-1.314
				c-0.145-0.119-0.205-0.29-0.35-0.401l-82.039-63.735V59.713c0-14.138-11.462-25.6-25.6-25.6h-92.476L271.565,5.364
				c-9.15-7.125-21.971-7.125-31.121,0L203.41,34.113h-92.476c-14.138,0-25.6,11.462-25.6,25.6v66.057L3.294,189.505
				c-2.045,1.632-3.213,4.125-3.157,6.741H0V383.98c0,4.713,3.821,8.533,8.533,8.533s8.533-3.82,8.533-8.533V209.243
				l139.836,108.578c3.726,2.823,9.03,2.123,11.896-1.57c2.866-3.693,2.227-9.005-1.434-11.913L25.31,194.028l60.023-46.643v65.929
				c0,4.713,3.821,8.533,8.533,8.533c4.713,0,8.533-3.821,8.533-8.533v-153.6c0-4.713,3.821-8.533,8.533-8.533h290.133
				c4.713,0,8.533,3.821,8.533,8.533v153.6c0,4.713,3.82,8.533,8.533,8.533s8.533-3.821,8.533-8.533v-65.929l60.023,46.643
				L344.389,304.535c-3.726,2.889-4.404,8.251-1.515,11.977c2.889,3.726,8.251,4.404,11.977,1.515l140.083-108.783v272.358
				L271.565,308.127c-9.146-7.137-21.975-7.137-31.121,0L17.067,481.601v-29.355c0-4.713-3.821-8.533-8.533-8.533
				S0,447.534,0,452.247v34.133c0.014,5.426,1.766,10.705,5.001,15.061c0.051,0.077,0.06,0.162,0.119,0.239
				c0.06,0.077,0.196,0.145,0.273,0.239c4.802,6.317,12.272,10.036,20.207,10.061h460.8c7.956-0.023,15.444-3.764,20.241-10.112
				c0.068-0.077,0.171-0.102,0.239-0.188c0.068-0.085,0.068-0.162,0.119-0.239c3.234-4.357,4.987-9.635,5.001-15.061V196.247
				c0-0.179-0.094-0.333-0.102-0.512C511.845,195.146,511.728,194.565,511.548,194.002z M250.88,18.83
				c2.985-2.355,7.195-2.355,10.18,0l19.686,15.283h-49.493L250.88,18.83z M250.88,321.593c2.98-2.368,7.2-2.368,10.18,0
				L484.25,494.913H27.751L250.88,321.593z"/>
			<path style="fill:#428DFF;" d="M291.098,173.702c-7.022,6.991-16.807,10.468-26.665,9.476
				c-9.859-0.992-18.755-6.347-24.244-14.596c-1.687-2.54-4.602-3.986-7.645-3.794c-3.043,0.192-5.753,1.992-7.108,4.723
				c-1.356,2.731-1.151,5.978,0.536,8.518c8.314,12.52,21.805,20.651,36.758,22.155c14.953,1.504,29.793-3.777,40.434-14.39
				l23.501-23.492c12.698-12.643,17.673-31.106,13.048-48.417c-4.625-17.311-18.146-30.832-35.458-35.458
				c-17.311-4.625-35.774,0.351-48.417,13.048l-5.871,5.871c-2.218,2.143-3.108,5.315-2.327,8.299
				c0.781,2.984,3.111,5.313,6.094,6.094c2.983,0.781,6.156-0.109,8.299-2.327l5.879-5.871c8.213-8.886,20.629-12.567,32.358-9.593
				c11.729,2.973,20.892,12.124,23.88,23.849s-0.677,24.146-9.552,32.37L291.098,173.702z"/>
			<path style="fill:#428DFF;" d="M208.837,138.459l-23.501,23.492c-12.698,12.643-17.673,31.106-13.048,48.417
				s18.146,30.832,35.458,35.458s35.774-0.351,48.417-13.048l5.871-5.871c3.234-3.348,3.188-8.671-0.104-11.962
				c-3.292-3.292-8.614-3.338-11.962-0.104l-5.879,5.871c-8.243,8.773-20.607,12.364-32.267,9.372s-20.767-12.093-23.768-23.75
				c-3-11.658,0.582-24.025,9.349-32.274l23.501-23.501c7.022-6.991,16.807-10.468,26.665-9.476
				c9.859,0.991,18.755,6.347,24.244,14.596c2.609,3.926,7.906,4.994,11.831,2.385c3.926-2.609,4.994-7.906,2.385-11.831
				c-8.322-12.509-21.811-20.632-36.76-22.136c-14.949-1.504-29.786,3.769-40.432,14.37V138.459z"/>
		</g>
	</g>
</g>
<g>
</g>
<g>
</g>
<g>
</g>
<g>
</g>
<g>
</g>
<g>
</g>
<g>
</g>
<g>
</g>
<g>
</g>
<g>
</g>
<g>
</g>
<g>
</g>
<g>
</g>
<g>
</g>
<g>
</g>
</svg>
