<?xml version="1.0" encoding="iso-8859-1"?>
<!-- Generator: Adobe Illustrator 19.0.0, SVG Export Plug-In . SVG Version: 6.00 Build 0)  -->
<svg version="1.1" id="Capa_1" xmlns="http://www.w3.org/2000/svg" xmlns:xlink="http://www.w3.org/1999/xlink" x="0px" y="0px"
	 viewBox="0 0 512.052 512.052" style="enable-background:new 0 0 512.052 512.052;" xml:space="preserve">
<g transform="translate(0 -1)">
	<g transform="translate(1 20)">
		<path style="fill:#A4C2F7;" d="M229.412,262.652v136.533c0,47.128-38.205,85.333-85.333,85.333h-51.2
			c-47.128,0-85.333-38.205-85.333-85.333V177.319c0-18.851,15.282-34.133,34.133-34.133h76.8L229.412,262.652z"/>
		<path style="fill:#D4E1F4;" d="M203.812,262.652v136.533c0,22.632-8.99,44.337-24.994,60.34s-37.708,24.994-60.34,24.994h-25.6
			c-47.128,0-85.333-38.205-85.333-85.333V177.319c0-18.851,15.282-34.133,34.133-34.133h51.2L203.812,262.652z"/>
		<path style="fill:#A4C2F7;" d="M229.412,177.319v85.333H118.479V143.186h76.8C214.13,143.186,229.412,158.468,229.412,177.319z"/>
		<path style="fill:#E3E7F2;" d="M203.812,177.319v85.333h-85.333V143.186h51.2C188.53,143.186,203.812,158.468,203.812,177.319z"/>
		<path style="fill:#A4C2F7;" d="M118.479,143.186v119.467H7.545v-85.333c0-18.851,15.282-34.133,34.133-34.133H118.479z"/>
		<path style="fill:#FFFFFF;" d="M33.145,177.319c0-18.851,15.282-34.133,34.133-34.133h-25.6
			c-18.851,0-34.133,15.282-34.133,34.133v221.867c0,47.128,38.205,85.333,85.333,85.333h25.6
			c-47.128,0-85.333-38.205-85.333-85.333V177.319z"/>
	</g>
	<g>
		<polygon style="fill:#FFFFFF;" points="0.012,419.186 0.012,308.252 0.012,197.319 17.079,197.319 17.079,308.252 17.079,419.186 
					"/>
		<g>
			<path style="fill:#428DFF;" d="M8.545,325.319c4.713,0,8.533-3.82,8.533-8.533v-25.6h204.8v59.733
				c0,4.713,3.821,8.533,8.533,8.533s8.533-3.82,8.533-8.533v-153.6c-0.028-23.552-19.114-42.638-42.667-42.667h-153.6
				c-23.552,0.028-42.638,19.114-42.667,42.667v119.467C0.012,321.499,3.833,325.319,8.545,325.319z M42.679,171.719h68.267v76.8
				c0,4.713,3.821,8.533,8.533,8.533c4.713,0,8.533-3.821,8.533-8.533v-76.8h68.267c14.138,0,25.6,11.462,25.6,25.6v76.8h-204.8
				v-76.8C17.079,183.18,28.54,171.719,42.679,171.719z"/>
			<path style="fill:#428DFF;" d="M3.767,358.002c0.476,0.323,0.992,0.581,1.536,0.768c0.484,0.247,1.001,0.419,1.536,0.512
				c0.564,0.095,1.135,0.152,1.707,0.171c2.259-0.033,4.422-0.917,6.059-2.475c0.771-0.816,1.38-1.772,1.792-2.816
				c1.287-3.183,0.586-6.825-1.792-9.301c-0.816-0.771-1.772-1.38-2.816-1.792c-1.026-0.437-2.128-0.669-3.243-0.683
				c-2.259,0.033-4.422,0.917-6.059,2.475c-3.3,3.365-3.3,8.752,0,12.117L3.767,358.002z"/>
			<path style="fill:#428DFF;" d="M93.879,513.052h51.2c51.816-0.061,93.806-42.051,93.867-93.867c0-4.713-3.82-8.533-8.533-8.533
				s-8.533,3.82-8.533,8.533c-0.047,42.396-34.404,76.753-76.8,76.8h-51.2c-42.396-0.047-76.753-34.404-76.8-76.8v-34.133
				c0-4.713-3.821-8.533-8.533-8.533s-8.533,3.82-8.533,8.533v34.133C0.073,471.001,42.063,512.991,93.879,513.052z"/>
			<path style="fill:#428DFF;" d="M358.412,513.052c42.396-0.047,76.753-34.404,76.8-76.8V265.586c0-4.713-3.821-8.533-8.533-8.533
				s-8.533,3.82-8.533,8.533v170.667c0,32.99-26.744,59.733-59.733,59.733s-59.733-26.744-59.733-59.733V94.919
				c0-51.841-42.026-93.867-93.867-93.867s-93.867,42.026-93.867,93.867v34.133c0,4.713,3.821,8.533,8.533,8.533
				c4.713,0,8.533-3.821,8.533-8.533V94.919c0-42.415,34.385-76.8,76.8-76.8s76.8,34.385,76.8,76.8v341.333
				C281.659,478.648,316.016,513.005,358.412,513.052z"/>
			<path style="fill:#428DFF;" d="M512.012,83.971c-1.761-45.048-37.879-81.162-82.927-82.918
				c-23.073-0.815-45.463,7.911-61.901,24.124c-16.595,16.029-25.927,38.138-25.839,61.21c0,4.713,3.82,8.533,8.533,8.533
				s8.533-3.821,8.533-8.533c-0.007-18.448,7.451-36.113,20.678-48.973c13.226-12.86,31.094-19.819,49.535-19.294
				c36.029,1.407,64.914,30.292,66.321,66.321c0.935,35.821-25.915,66.3-61.568,69.888c-8.695,0.848-15.304,8.194-15.232,16.93
				v26.061c0,4.713,3.82,8.533,8.533,8.533s8.533-3.821,8.533-8.533l-0.213-26.001C479.577,166.852,513.164,128.758,512.012,83.971z
				"/>
			<path style="fill:#428DFF;" d="M432.737,225.394c-3.422-3.158-8.695-3.158-12.117,0c-3.3,3.365-3.3,8.752,0,12.117
				c3.346,3.346,8.771,3.346,12.117,0C436.083,234.165,436.083,228.74,432.737,225.394z"/>
		</g>
	</g>
</g>
<g>
</g>
<g>
</g>
<g>
</g>
<g>
</g>
<g>
</g>
<g>
</g>
<g>
</g>
<g>
</g>
<g>
</g>
<g>
</g>
<g>
</g>
<g>
</g>
<g>
</g>
<g>
</g>
<g>
</g>
</svg>
