<?xml version="1.0" encoding="iso-8859-1"?>
<!-- Generator: Adobe Illustrator 19.0.0, SVG Export Plug-In . SVG Version: 6.00 Build 0)  -->
<svg version="1.1" id="Capa_1" xmlns="http://www.w3.org/2000/svg" xmlns:xlink="http://www.w3.org/1999/xlink" x="0px" y="0px"
	 viewBox="0 0 512 512" style="enable-background:new 0 0 512 512;" xml:space="preserve">
<path style="fill:#7FACFA;" d="M256,26.947v24.91c39.334,26.753,62.877,71.24,62.877,118.809S295.334,262.723,256,289.476v42.875
	h26.947v53.895l53.895-53.895h134.737c9.922,0,17.965-8.043,17.965-17.965V26.947c0-9.922-8.043-17.965-17.965-17.965H273.965
	C264.043,8.982,256,17.026,256,26.947z"/>
<path style="fill:#E3E7F2;" d="M256,26.947v24.91c39.334,26.753,62.877,71.24,62.877,118.809S295.334,262.723,256,289.476v42.875
	h26.947v53.895l53.895-53.895h107.789c9.922,0,17.965-8.043,17.965-17.965V26.947c0-9.922-8.043-17.965-17.965-17.965H273.965
	C264.043,8.982,256,17.026,256,26.947z"/>
<path style="fill:#FFFFFF;" d="M175.158,26.947c-61.016-0.028-115.392,38.491-135.606,96.06S37.695,244.636,85.333,282.76v67.556
	l43.649-43.649c53.954,18.33,113.641,3.042,152.141-38.967s48.535-102.801,25.58-154.955
	C283.748,60.591,232.14,26.931,175.158,26.947L175.158,26.947z"/>
<path style="fill:#D4E1F4;" d="M188.632,35.93c-71.933,0-130.246,62.558-130.246,139.727
	c-0.345,41.701,17.485,81.486,48.842,108.979v65.68l39.557-42.437c13.401,4.934,27.566,7.474,41.846,7.505
	c71.933,0,130.246-62.558,130.246-139.727S260.564,35.93,188.632,35.93z"/>
<path style="fill:#FFFFFF;" d="M282.947,332.351H256v-42.875c-37.259,25.439-84.336,31.811-127.018,17.191l-43.649,43.649V282.76
	c-11.06-8.949-20.741-19.479-28.73-31.251H40.421c-9.922,0-17.965,8.043-17.965,17.965v161.684c0,9.922,8.043,17.965,17.965,17.965
	l0,0v53.895l53.895-53.895H291.93c9.922,0,17.965-8.043,17.965-17.965v-71.86l-26.947,26.947v-53.894H282.947z"/>
<path style="fill:#A4C2F7;" d="M67.368,260.491c-9.922,0-17.965-0.939-17.965,8.982v161.684c0,9.922,8.043,17.965,17.965,17.965l0,0
	v26.947l26.947-26.947H291.93c9.922,0,17.965-8.043,17.965-17.965v-71.86l-26.947,26.947v-53.895H256v-42.875
	c-23.819,16.266-51.999,24.949-80.842,24.91c-18.238-0.029-36.382-2.628-53.895-7.719l-35.93,43.649V282.76L67.368,260.491z"/>
<g>
	<path style="fill:#428DFF;" d="M85.333,359.298c-4.961,0-8.982-4.022-8.982-8.982v-63.325
		C16.239,236.105,4.336,148.006,48.79,82.992S179.657-2.897,248.887,34.655s98.857,121.369,68.604,194.085
		s-110.59,110.783-186.025,88.147l-39.781,39.78C90,358.351,87.715,359.298,85.333,359.298L85.333,359.298z M175.158,35.93
		c-57.203-0.028-108.183,36.084-127.133,90.058S46.29,240.017,90.956,275.754c2.123,1.707,3.359,4.284,3.359,7.009v45.868
		l28.316-28.316c2.425-2.405,5.997-3.24,9.237-2.158c50.581,17.186,106.538,2.855,142.632-36.527s45.502-96.374,23.981-145.268
		S228.578,35.913,175.158,35.93z"/>
	<path style="fill:#428DFF;" d="M282.947,395.228c-4.961,0-8.982-4.022-8.982-8.982v-44.912H256
		c-2.383,0.001-4.668-0.945-6.353-2.629c-1.685-1.685-2.631-3.97-2.629-6.353v-42.877c-0.002-2.97,1.466-5.749,3.921-7.421
		c36.88-25.079,58.956-66.787,58.956-111.386s-22.076-86.307-58.956-111.386c-2.455-1.672-3.923-4.451-3.921-7.421V26.947
		C247.034,12.071,259.089,0.016,273.965,0h197.614c14.876,0.016,26.931,12.071,26.947,26.947v287.439
		c-0.016,14.876-12.071,26.931-26.947,26.947H340.561l-51.263,51.263C287.614,394.281,285.33,395.228,282.947,395.228z
		 M264.982,323.368h17.965c2.383-0.001,4.668,0.945,6.353,2.629c1.685,1.685,2.631,3.97,2.629,6.353v32.211L330.492,326
		c1.684-1.685,3.968-2.632,6.351-2.631H471.58c4.96-0.003,8.979-4.023,8.982-8.982V26.947c-0.003-4.959-4.023-8.979-8.982-8.982
		H273.965c-4.96,0.003-8.979,4.023-8.982,8.982v20.254c39.504,28.726,62.877,74.621,62.877,123.465s-23.373,94.739-62.877,123.465
		L264.982,323.368L264.982,323.368z"/>
	<path style="fill:#428DFF;" d="M40.421,512c-4.961,0-8.982-4.022-8.982-8.982V456.57c-10.758-3.821-17.951-13.996-17.965-25.412
		V269.474c0.016-14.876,12.071-26.931,26.947-26.947h16.184c2.965,0.001,5.739,1.465,7.412,3.912
		c7.487,11.045,16.564,20.924,26.938,29.316c2.123,1.707,3.359,4.284,3.359,7.009v45.868l28.316-28.316
		c2.425-2.405,5.997-3.24,9.237-2.158c40.017,13.629,84.112,7.664,119.07-16.106c2.752-1.873,6.313-2.072,9.256-0.517
		c2.943,1.555,4.785,4.61,4.788,7.938v33.895h17.965c2.383-0.001,4.668,0.945,6.353,2.629c1.685,1.685,2.631,3.97,2.629,6.353
		v32.211l11.614-11.614c2.569-2.569,6.432-3.338,9.789-1.947c3.356,1.39,5.545,4.666,5.545,8.299v71.86
		c-0.016,14.876-12.071,26.931-26.947,26.947H98.035l-51.263,51.263C45.088,511.053,42.803,512,40.421,512L40.421,512z
		 M40.421,260.491c-4.959,0.003-8.979,4.023-8.982,8.982v161.684c0.003,4.96,4.023,8.979,8.982,8.982
		c2.383-0.001,4.668,0.945,6.353,2.629c1.685,1.685,2.631,3.97,2.629,6.353v32.211l38.562-38.562
		c1.684-1.685,3.968-2.632,6.351-2.631H291.93c4.959-0.003,8.979-4.023,8.982-8.982v-50.175l-11.614,11.614
		c-2.569,2.569-6.432,3.338-9.789,1.947c-3.356-1.39-5.545-4.666-5.545-8.299v-44.912H256c-2.383,0.001-4.668-0.945-6.353-2.629
		c-1.685-1.685-2.631-3.97-2.629-6.353v-26.938c-35.498,18.91-77.029,23.033-115.553,11.474l-39.781,39.78
		c-2.569,2.569-6.432,3.338-9.788,1.948s-5.545-4.665-5.545-8.298v-63.325c-9.142-7.849-17.333-16.743-24.404-26.5L40.421,260.491
		L40.421,260.491z"/>
	<path style="fill:#428DFF;" d="M435.649,89.825h-62.877c-4.961,0-8.982-4.022-8.982-8.982c0-4.961,4.022-8.982,8.982-8.982h62.877
		c4.961,0,8.982,4.022,8.982,8.982C444.632,85.803,440.61,89.825,435.649,89.825z"/>
	<path style="fill:#428DFF;" d="M336.842,89.825H291.93c-4.961,0-8.982-4.022-8.982-8.982c0-4.961,4.022-8.982,8.982-8.982h44.912
		c4.961,0,8.982,4.022,8.982,8.982C345.825,85.803,341.803,89.825,336.842,89.825z"/>
	<path style="fill:#428DFF;" d="M435.649,134.737h-26.947c-4.961,0-8.982-4.022-8.982-8.982s4.022-8.982,8.982-8.982h26.947
		c4.961,0,8.982,4.022,8.982,8.982S440.61,134.737,435.649,134.737z"/>
	<path style="fill:#428DFF;" d="M372.772,134.737h-53.895c-4.961,0-8.982-4.022-8.982-8.982s4.022-8.982,8.982-8.982h53.895
		c4.961,0,8.982,4.022,8.982,8.982S377.733,134.737,372.772,134.737z"/>
	<path style="fill:#428DFF;" d="M435.649,179.649h-53.895c-4.961,0-8.982-4.022-8.982-8.982c0-4.961,4.022-8.982,8.982-8.982h53.895
		c4.961,0,8.982,4.022,8.982,8.982C444.632,175.628,440.61,179.649,435.649,179.649z"/>
	<path style="fill:#428DFF;" d="M345.825,179.649h-26.947c-4.961,0-8.982-4.022-8.982-8.982c0-4.961,4.022-8.982,8.982-8.982h26.947
		c4.961,0,8.982,4.022,8.982,8.982C354.807,175.628,350.785,179.649,345.825,179.649z"/>
	<path style="fill:#428DFF;" d="M435.649,224.561h-26.947c-4.961,0-8.982-4.022-8.982-8.982s4.022-8.982,8.982-8.982h26.947
		c4.961,0,8.982,4.022,8.982,8.982S440.61,224.561,435.649,224.561z"/>
	<path style="fill:#428DFF;" d="M372.772,224.561h-53.895c-4.961,0-8.982-4.022-8.982-8.982s4.022-8.982,8.982-8.982h53.895
		c4.961,0,8.982,4.022,8.982,8.982S377.733,224.561,372.772,224.561z"/>
	<path style="fill:#428DFF;" d="M435.649,269.474h-44.912c-4.961,0-8.982-4.022-8.982-8.982c0-4.961,4.022-8.982,8.982-8.982h44.912
		c4.961,0,8.982,4.022,8.982,8.982C444.632,265.452,440.61,269.474,435.649,269.474z"/>
	<path style="fill:#428DFF;" d="M354.807,269.474H291.93c-4.961,0-8.982-4.022-8.982-8.982c0-4.961,4.022-8.982,8.982-8.982h62.877
		c4.961,0,8.982,4.022,8.982,8.982S359.768,269.474,354.807,269.474z"/>
	<path style="fill:#428DFF;" d="M247.018,134.737h-44.912c-4.961,0-8.982-4.022-8.982-8.982s4.022-8.982,8.982-8.982h44.912
		c4.961,0,8.982,4.022,8.982,8.982S251.978,134.737,247.018,134.737z"/>
	<path style="fill:#428DFF;" d="M166.175,134.737h-62.877c-4.961,0-8.982-4.022-8.982-8.982s4.022-8.982,8.982-8.982h62.877
		c4.961,0,8.982,4.022,8.982,8.982S171.136,134.737,166.175,134.737z"/>
	<path style="fill:#428DFF;" d="M247.018,179.649h-8.982c-4.961,0-8.982-4.022-8.982-8.982c0-4.961,4.022-8.982,8.982-8.982h8.982
		c4.961,0,8.982,4.022,8.982,8.982C256,175.628,251.978,179.649,247.018,179.649z"/>
	<path style="fill:#428DFF;" d="M202.105,179.649h-35.93c-4.961,0-8.982-4.022-8.982-8.982c0-4.961,4.022-8.982,8.982-8.982h35.93
		c4.961,0,8.982,4.022,8.982,8.982C211.088,175.628,207.066,179.649,202.105,179.649z"/>
	<path style="fill:#428DFF;" d="M130.246,179.649h-26.947c-4.961,0-8.982-4.022-8.982-8.982c0-4.961,4.022-8.982,8.982-8.982h26.947
		c4.961,0,8.982,4.022,8.982,8.982C139.228,175.628,135.206,179.649,130.246,179.649z"/>
	<path style="fill:#428DFF;" d="M247.018,224.561H220.07c-4.961,0-8.982-4.022-8.982-8.982s4.022-8.982,8.982-8.982h26.947
		c4.961,0,8.982,4.022,8.982,8.982S251.978,224.561,247.018,224.561z"/>
	<path style="fill:#428DFF;" d="M184.14,224.561h-80.842c-4.961,0-8.982-4.022-8.982-8.982s4.022-8.982,8.982-8.982h80.842
		c4.961,0,8.982,4.022,8.982,8.982S189.101,224.561,184.14,224.561z"/>
	<path style="fill:#428DFF;" d="M229.053,368.281h-62.877c-4.961,0-8.982-4.022-8.982-8.982s4.022-8.982,8.982-8.982h62.877
		c4.961,0,8.982,4.022,8.982,8.982S234.014,368.281,229.053,368.281z"/>
	<path style="fill:#428DFF;" d="M130.246,368.281h-8.982c-4.961,0-8.982-4.022-8.982-8.982s4.022-8.982,8.982-8.982h8.982
		c4.961,0,8.982,4.022,8.982,8.982S135.206,368.281,130.246,368.281z"/>
	<path style="fill:#428DFF;" d="M229.053,413.193h-26.947c-4.961,0-8.982-4.022-8.982-8.982c0-4.961,4.022-8.982,8.982-8.982h26.947
		c4.961,0,8.982,4.022,8.982,8.982C238.035,409.171,234.014,413.193,229.053,413.193z"/>
	<path style="fill:#428DFF;" d="M166.175,413.193h-44.912c-4.961,0-8.982-4.022-8.982-8.982c0-4.961,4.022-8.982,8.982-8.982h44.912
		c4.961,0,8.982,4.022,8.982,8.982C175.158,409.171,171.136,413.193,166.175,413.193z"/>
</g>
<g>
</g>
<g>
</g>
<g>
</g>
<g>
</g>
<g>
</g>
<g>
</g>
<g>
</g>
<g>
</g>
<g>
</g>
<g>
</g>
<g>
</g>
<g>
</g>
<g>
</g>
<g>
</g>
<g>
</g>
</svg>
