<?xml version="1.0" encoding="iso-8859-1"?>
<!-- Generator: Adobe Illustrator 19.0.0, SVG Export Plug-In . SVG Version: 6.00 Build 0)  -->
<svg version="1.1" id="Capa_1" xmlns="http://www.w3.org/2000/svg" xmlns:xlink="http://www.w3.org/1999/xlink" x="0px" y="0px"
	 viewBox="0 0 511.99 511.99" style="enable-background:new 0 0 511.99 511.99;" xml:space="preserve">
<g transform="translate(0 -1)">
	<g transform="translate(1 2)">
		<path style="fill:#E3E7F2;" d="M371.262,370.213h60.817c6.507-0.055,12.539,3.398,15.787,9.037l52.463,93.867
			c2.889,5.405,2.659,11.945-0.605,17.133c-3.263,5.188-9.058,8.228-15.182,7.964H25.448c-6.123,0.264-11.918-2.776-15.182-7.964
			c-3.263-5.188-3.494-11.728-0.605-17.133l52.463-93.867c3.247-5.639,9.28-9.092,15.787-9.037H371.262z"/>
		<path style="fill:#A4C2F7;" d="M484.542,498.213H126.995c0,0,170.667-17.067,213.333-128h91.733
			c6.513-0.07,12.554,3.391,15.787,9.045l52.48,93.867c2.885,5.405,2.652,11.941-0.611,17.126
			C496.454,495.437,490.662,498.476,484.542,498.213z"/>
		<path style="fill:#E3E7F2;" d="M450.408,498.213H126.995c0,0,170.667-17.067,213.333-128h57.6
			c6.513-0.07,12.554,3.391,15.787,9.045l52.48,93.867c2.885,5.405,2.652,11.941-0.611,17.126
			C462.321,495.437,456.529,498.476,450.408,498.213z"/>
		<path style="fill:#A4C2F7;" d="M417.128,174.203c0,22.357-10.155,50.688-25.344,80.555
			c-16.467,31.182-35.086,61.178-55.723,89.771c-20.309,28.587-40.533,54.357-55.723,72.96c-4.608,5.717-8.789,10.667-12.288,14.933
			c-3.195,3.81-7.897,6.032-12.869,6.081c-4.972,0.049-9.717-2.079-12.987-5.825l-0.256-0.256
			c-3.499-4.267-7.68-9.216-12.288-14.933c-15.189-18.603-35.499-44.373-55.723-72.96c-20.667-28.573-39.288-58.571-55.723-89.771
			c-15.189-29.867-25.344-58.197-25.344-80.555c-0.104-65.237,38.901-124.181,98.987-149.589
			c16.004-6.802,33.009-10.952,50.347-12.288c4.181-0.341,8.533-0.512,12.8-0.512c43.021,0,84.279,17.099,114.688,47.531
			C400.142,89.798,417.216,131.131,417.128,174.203z"/>
		<path style="fill:#E3E7F2;" d="M391.528,174.203c0,22.357-10.155,50.688-25.344,80.555
			c-16.467,31.182-35.086,61.178-55.723,89.771c-20.309,28.587-40.533,54.357-55.723,72.96c-4.608,5.717-8.789,10.667-12.288,14.933
			l-0.256,0.256l-0.256-0.256c-3.499-4.267-7.68-9.216-12.288-14.933c-15.189-18.603-35.499-44.373-55.723-72.96
			c-20.667-28.573-39.288-58.571-55.723-89.771c-15.189-29.867-25.344-58.197-25.344-80.555
			c-0.104-65.237,38.901-124.181,98.987-149.589c16.004-6.802,33.009-10.952,50.347-12.288c17.338,1.336,34.343,5.486,50.347,12.288
			C352.641,50.005,391.653,108.96,391.528,174.203z"/>
		<path style="fill:#D4E1F4;" d="M331.795,165.413c-0.066,42.388-34.412,76.734-76.8,76.8c-4.287,0.005-8.568-0.337-12.8-1.024
			c-36.92-6.316-63.914-38.32-63.914-75.776s26.994-69.46,63.914-75.776c4.232-0.687,8.513-1.029,12.8-1.024
			C297.383,88.679,331.729,123.025,331.795,165.413z"/>
		<path style="fill:#F5F5F5;" d="M306.195,165.413c-0.088,37.454-27.089,69.423-64,75.776c-36.92-6.316-63.914-38.32-63.914-75.776
			s26.994-69.46,63.914-75.776C279.106,95.99,306.107,127.959,306.195,165.413z"/>
		<g>
			<path style="fill:#FFFFFF;" d="M25.448,498.213h25.6c-6.123,0.264-11.918-2.776-15.182-7.964
				c-3.263-5.188-3.494-11.728-0.605-17.133l52.463-93.867c3.247-5.639,9.28-9.092,15.787-9.037l-25.6,0.001
				c-6.501-0.049-12.525,3.403-15.77,9.037L9.679,473.117c-2.888,5.403-2.658,11.938,0.601,17.125
				C13.539,495.429,19.328,498.471,25.448,498.213z"/>
			<path style="fill:#FFFFFF;" d="M173.928,344.528c6.289,8.892,12.578,17.468,18.773,25.685h25.6
				c-6.153-8.218-12.442-16.794-18.773-25.685c-20.667-28.573-39.288-58.571-55.723-89.771
				c-15.189-29.867-25.344-58.197-25.344-80.555c-0.104-65.237,38.901-124.181,98.987-149.589
				c15.761-6.684,32.49-10.801,49.553-12.194c-3.977-0.29-7.953-0.606-12.006-0.606c-4.267,0-8.619,0.171-12.8,0.512
				c-17.338,1.336-34.343,5.486-50.347,12.288c-60.099,25.391-99.111,84.347-98.987,149.589c0,22.357,10.155,50.688,25.344,80.555
				C134.641,285.957,153.261,315.955,173.928,344.528z"/>
		</g>
	</g>
	<g>
		<path style="fill:#FFFFFF;" d="M78.911,380.747c-2.494-0.007-4.899,0.929-6.733,2.62c-0.426,0.398-0.807,0.841-1.135,1.323
			c-0.188,0.23-0.307,0.486-0.469,0.725l-0.853,1.519l-3.413,6.05l-13.5,24.209l-27.059,48.418l-7.68,13.653l-14.857-8.311
			l7.68-13.653l27.025-48.393l13.525-24.209l3.413-6.05l0.853-1.51c0.444-0.742,0.853-1.502,1.391-2.202
			c1.002-1.418,2.146-2.73,3.413-3.917c4.979-4.693,11.556-7.317,18.398-7.339V380.747z"/>
		<g>
			<path style="fill:#428DFF;" d="M51.613,401.858c4.112,2.295,9.306,0.824,11.605-3.285l4.164-7.45l2.082-3.729l1.041-1.86
				c0.185-0.328,0.39-0.644,0.614-0.947c1.843-2.441,4.732-3.866,7.791-3.84h60.817c4.713,0,8.533-3.821,8.533-8.533
				c0-4.713-3.821-8.533-8.533-8.533H78.911c-8.529-0.025-16.558,4.02-21.615,10.889c-0.614,0.849-1.184,1.729-1.707,2.637
				l-0.981,1.835l-2.082,3.729l-4.156,7.45c-1.116,1.973-1.402,4.309-0.793,6.492C48.185,398.895,49.637,400.747,51.613,401.858z"/>
			<path style="fill:#428DFF;" d="M32.422,429.472c0.683,0.882,1.533,1.621,2.5,2.176c1.988,1.071,4.306,1.354,6.494,0.794
				c4.524-1.323,7.155-6.026,5.914-10.573l-0.614-1.519c-0.26-0.516-0.587-0.995-0.973-1.425c-0.3-0.452-0.669-0.855-1.092-1.195
				c-0.446-0.356-0.913-0.684-1.399-0.981c-1.99-1.076-4.312-1.359-6.502-0.794c-2.777,0.736-4.988,2.837-5.864,5.574
				C30.008,424.266,30.588,427.26,32.422,429.472z"/>
			<path style="fill:#428DFF;" d="M167.965,351.469c21.086,29.73,42.138,56.32,56.09,73.446c2.031,2.492,3.934,4.804,5.777,7.031
				h-42.103c-4.713,0-8.533,3.821-8.533,8.533s3.821,8.533,8.533,8.533h136.533c4.713,0,8.533-3.82,8.533-8.533
				s-3.82-8.533-8.533-8.533h-42.103c1.843-2.227,3.746-4.54,5.786-7.031c13.943-17.067,34.987-43.716,56.081-73.446
				c20.929-28.905,39.767-59.267,56.371-90.854c17.425-34.219,26.266-62.626,26.266-84.437
				c0.058-45.321-17.926-88.801-49.98-120.841c-2.141-2.22-5.313-3.112-8.297-2.333s-5.316,3.107-6.099,6.09
				c-0.783,2.983,0.104,6.156,2.321,8.3c28.852,28.844,45.039,67.985,44.988,108.783c0,19.098-8.209,44.902-24.405,76.689
				c-16.229,30.855-34.64,60.513-55.091,88.747c-20.804,29.346-41.6,55.637-55.381,72.533c-4.582,5.615-8.704,10.581-12.22,14.78
				c-1.641,1.874-4.011,2.948-6.502,2.948s-4.861-1.075-6.502-2.948c-3.516-4.198-7.637-9.165-12.22-14.78
				c-13.781-16.887-34.577-43.179-55.381-72.533c-20.451-28.234-38.862-57.892-55.091-88.747
				c-16.213-31.787-24.405-57.591-24.405-76.689C102.39,114.368,139.354,58.55,196.262,34.43c38.238-16.034,81.314-16.034,119.552,0
				c2.808,1.191,6.038,0.793,8.472-1.044c2.435-1.836,3.705-4.832,3.332-7.859s-2.332-5.625-5.14-6.815
				C235.58-17.941,135.422,22.774,98.743,109.66c-8.895,21.046-13.457,43.669-13.414,66.517c0,21.811,8.841,50.219,26.266,84.48
				C128.2,292.23,147.038,322.578,167.965,351.469z"/>
			<path style="fill:#428DFF;" d="M255.995,99.147c4.713,0,8.533-3.821,8.533-8.533c0-4.713-3.82-8.533-8.533-8.533
				c-40.71-0.001-75.752,28.757-83.695,68.685c-7.943,39.928,13.426,79.906,51.037,95.486s80.99,2.421,103.608-31.428
				s18.175-78.962-10.611-107.749c-2.142-2.218-5.315-3.108-8.299-2.327s-5.313,3.111-6.094,6.094s0.109,6.156,2.327,8.299
				c23.03,23.029,26.585,59.118,8.492,86.198c-18.093,27.08-52.796,37.608-82.885,25.146
				c-30.089-12.462-47.185-44.444-40.833-76.387S223.427,99.148,255.995,99.147z"/>
			<path style="fill:#428DFF;" d="M26.448,508.747h459.093c9.426,0.114,18.192-4.829,22.972-12.954
				c4.539-7.633,4.64-17.113,0.265-24.841l-52.48-93.867c-4.745-8.34-13.624-13.466-23.219-13.406h-60.817
				c-4.713,0-8.533,3.821-8.533,8.533c0,4.713,3.82,8.533,8.533,8.533h60.817c3.416-0.066,6.603,1.715,8.337,4.659l52.463,93.867
				c1.429,2.442,1.399,5.471-0.077,7.885c-1.743,2.88-4.895,4.605-8.26,4.523H26.448c-3.362,0.08-6.51-1.646-8.252-4.523
				c-1.475-2.41-1.508-5.435-0.085-7.876l7.68-13.653l4.164-7.45c2.295-4.126,0.811-9.332-3.315-11.627
				c-4.126-2.295-9.332-0.811-11.627,3.315l-4.164,7.45L3.212,470.97c-4.375,7.728-4.274,17.208,0.265,24.841
				C8.261,503.929,17.026,508.864,26.448,508.747z"/>
			<path style="fill:#428DFF;" d="M418.128,406.347h-34.133c-1.685,0.003-3.332,0.501-4.736,1.434l-25.6,17.067
				c-3.921,2.616-4.979,7.915-2.364,11.836c2.616,3.921,7.915,4.979,11.836,2.364l23.424-15.633h31.573
				c4.713,0,8.533-3.82,8.533-8.533S422.841,406.347,418.128,406.347z"/>
			<path style="fill:#428DFF;" d="M366.928,466.08c0,4.713,3.821,8.533,8.533,8.533h68.267c4.713,0,8.533-3.821,8.533-8.533
				c0-4.713-3.82-8.533-8.533-8.533h-68.267C370.749,457.547,366.928,461.367,366.928,466.08z"/>
			<path style="fill:#428DFF;" d="M153.595,440.48c3.762,0.005,7.083-2.455,8.176-6.055c1.093-3.6-0.301-7.491-3.431-9.578
				l-25.6-17.067c-1.406-0.934-3.056-1.433-4.745-1.434H93.862c-4.713,0-8.533,3.82-8.533,8.533s3.821,8.533,8.533,8.533h31.573
				l23.45,15.633C150.28,439.977,151.918,440.475,153.595,440.48z"/>
			<path style="fill:#428DFF;" d="M68.262,457.547c-4.713,0-8.533,3.821-8.533,8.533c0,4.713,3.821,8.533,8.533,8.533h68.267
				c4.713,0,8.533-3.821,8.533-8.533c0-4.713-3.821-8.533-8.533-8.533H68.262z"/>
		</g>
	</g>
</g>
<g>
</g>
<g>
</g>
<g>
</g>
<g>
</g>
<g>
</g>
<g>
</g>
<g>
</g>
<g>
</g>
<g>
</g>
<g>
</g>
<g>
</g>
<g>
</g>
<g>
</g>
<g>
</g>
<g>
</g>
</svg>
