<?xml version="1.0" encoding="iso-8859-1"?>
<!-- Generator: Adobe Illustrator 19.0.0, SVG Export Plug-In . SVG Version: 6.00 Build 0)  -->
<svg version="1.1" id="Capa_1" xmlns="http://www.w3.org/2000/svg" xmlns:xlink="http://www.w3.org/1999/xlink" x="0px" y="0px"
	 viewBox="0 0 512 512" style="enable-background:new 0 0 512 512;" xml:space="preserve">
<g>
	<g transform="translate(1 1)">
		
			<linearGradient id="SVGID_1_" gradientUnits="userSpaceOnUse" x1="-49.8632" y1="651.7096" x2="-48.9387" y2="650.6784" gradientTransform="matrix(494.9333 0 0 -443.7334 24705.2012 289233.875)">
			<stop  offset="0" style="stop-color:#D3DFF2"/>
			<stop  offset="0.172" style="stop-color:#D3DFF2"/>
			<stop  offset="0.2" style="stop-color:#D3DFF2"/>
			<stop  offset="0.2" style="stop-color:#DAE2F2"/>
			<stop  offset="0.201" style="stop-color:#EBEAF2"/>
			<stop  offset="0.201" style="stop-color:#F6EFF2"/>
			<stop  offset="0.202" style="stop-color:#FDF2F2"/>
			<stop  offset="0.205" style="stop-color:#FFF3F2"/>
			<stop  offset="0.252" style="stop-color:#FFF3F2"/>
			<stop  offset="0.26" style="stop-color:#FFF3F2"/>
			<stop  offset="0.26" style="stop-color:#D3DFF2"/>
			<stop  offset="0.397" style="stop-color:#D3DFF2"/>
			<stop  offset="0.42" style="stop-color:#D3DFF2"/>
			<stop  offset="0.42" style="stop-color:#DAE2F2"/>
			<stop  offset="0.421" style="stop-color:#EBEAF2"/>
			<stop  offset="0.421" style="stop-color:#F6EFF2"/>
			<stop  offset="0.422" style="stop-color:#FDF2F2"/>
			<stop  offset="0.425" style="stop-color:#FFF3F2"/>
			<stop  offset="0.489" style="stop-color:#FFF3F2"/>
			<stop  offset="0.5" style="stop-color:#FFF3F2"/>
			<stop  offset="0.5" style="stop-color:#F8F0F2"/>
			<stop  offset="0.5" style="stop-color:#E7E8F2"/>
			<stop  offset="0.5" style="stop-color:#DCE3F2"/>
			<stop  offset="0.5" style="stop-color:#D5E0F2"/>
			<stop  offset="0.501" style="stop-color:#D3DFF2"/>
			<stop  offset="0.706" style="stop-color:#D3DFF2"/>
			<stop  offset="0.74" style="stop-color:#D3DFF2"/>
			<stop  offset="0.741" style="stop-color:#FFF3F2"/>
			<stop  offset="0.835" style="stop-color:#FFF3F2"/>
			<stop  offset="0.85" style="stop-color:#FFF3F2"/>
			<stop  offset="0.851" style="stop-color:#D3DFF2"/>
		</linearGradient>
		<path style="fill:url(#SVGID_1_);" d="M502.467,75.8v401.067c0,14.138-11.462,25.6-25.6,25.6H33.133
			c-14.138,0-25.6-11.462-25.6-25.6V75.8l8.533-17.067h477.867L502.467,75.8z"/>
		<path style="fill:#A4C2F7;" d="M502.467,33.133V75.8H7.533V33.133c0-14.138,11.462-25.6,25.6-25.6h443.733
			C491.005,7.533,502.467,18.995,502.467,33.133z"/>
		<path style="fill:#E3E7F2;" d="M476.867,33.133V75.8H7.533V33.133c0-14.138,11.462-25.6,25.6-25.6h418.133
			C465.405,7.533,476.867,18.995,476.867,33.133z"/>
		<path style="fill:#A4C2F7;" d="M425.667,215.405v232.789c-0.009,3.09-1.246,6.05-3.439,8.226
			c-2.193,2.177-5.161,3.393-8.251,3.379H97.56c-6.423,0-11.644-5.182-11.691-11.605V215.405
			c0.047-6.423,5.267-11.606,11.691-11.605h316.416c3.09-0.014,6.058,1.202,8.251,3.379
			C424.42,209.356,425.658,212.315,425.667,215.405z"/>
		<path style="fill:#E3E7F2;" d="M400.067,215.405v232.789c-0.009,3.09-1.246,6.05-3.439,8.226
			c-2.193,2.177-5.161,3.393-8.251,3.379H97.56c-2.762,0.004-5.431-0.997-7.509-2.816c-2.663-2.137-4.203-5.375-4.181-8.789V215.405
			c-0.014-2.821,1.055-5.539,2.987-7.595c0.39-0.491,0.85-0.922,1.365-1.28c0.996-0.939,2.192-1.639,3.499-2.048
			c0.493-0.204,1.009-0.347,1.536-0.427c0.756-0.169,1.529-0.255,2.304-0.256h290.816c3.09-0.014,6.058,1.202,8.251,3.379
			C398.82,209.356,400.058,212.315,400.067,215.405z"/>
		<path style="fill:#A4C2F7;" d="M400.067,227.096v-11.691c-0.009-3.09-1.246-6.05-3.439-8.226
			c-2.193-2.177-5.161-3.393-8.251-3.379l25.6,0c3.375-0.01,6.585,1.455,8.789,4.011L400.067,227.096z"/>
		<path style="fill:#E3E7F2;" d="M400.067,215.405v11.691l-108.373,91.819l-24.576,20.907c-6.549,5.461-16.064,5.461-22.613,0
			l-24.661-20.907L88.856,207.811c0.39-0.491,0.85-0.922,1.365-1.28c0.996-0.939,2.192-1.639,3.499-2.048
			c0.493-0.204,1.009-0.347,1.536-0.427c0.756-0.169,1.529-0.255,2.304-0.256h290.816c3.09-0.014,6.058,1.202,8.251,3.379
			C398.82,209.356,400.058,212.315,400.067,215.405z"/>
		<path style="fill:#A4C2F7;" d="M421.485,456.984c-2.078,1.819-4.747,2.82-7.509,2.816l-25.6,0c3.09,0.014,6.058-1.202,8.251-3.379
			c2.193-2.177,3.43-5.136,3.439-8.226V434.2L421.485,456.984z"/>
		<path style="fill:#E3E7F2;" d="M400.067,434.2v13.995c-0.009,3.09-1.246,6.05-3.439,8.226c-2.193,2.177-5.161,3.393-8.251,3.379
			H97.56c-2.762,0.004-5.431-0.997-7.509-2.816l129.792-138.069l24.661,20.907c6.549,5.461,16.064,5.461,22.613,0l24.576-20.907
			L400.067,434.2z"/>
		<g>
			<path style="fill:#FFFFFF;" d="M220.867,229.4v-51.2c0-4.713-3.821-8.533-8.533-8.533h-17.067c-3.556,0-6.739-2.205-7.989-5.535
				c-1.25-3.329-0.304-7.084,2.374-9.424l59.733-51.2c3.219-2.82,8.028-2.82,11.247,0l59.733,51.2
				c2.68,2.342,3.625,6.101,2.371,9.432c-1.254,3.331-4.444,5.534-8.003,5.527h-17.067c-4.713,0-8.533,3.821-8.533,8.533v51.2
				c0,4.713-3.821,8.533-8.533,8.533h-51.2C224.687,237.933,220.867,234.113,220.867,229.4z"/>
			<path style="fill:#FFFFFF;" d="M33.133,476.867V33.133c0-14.138,11.462-25.6,25.6-25.6h-25.6c-14.138,0-25.6,11.462-25.6,25.6
				v443.733c0,14.138,11.462,25.6,25.6,25.6h25.6C44.595,502.467,33.133,491.005,33.133,476.867z"/>
		</g>
	</g>
	<g>
		<polygon style="fill:#FFFFFF;" points="17.067,128 17.067,238.933 17.067,477.867 0,477.867 0,238.933 0,128 		"/>
		<g>
			<path style="fill:#428DFF;" d="M8.533,170.667c4.713,0,8.533-3.821,8.533-8.533v-51.2c0-4.713-3.821-8.533-8.533-8.533
				S0,106.221,0,110.933v51.2C0,166.846,3.821,170.667,8.533,170.667z"/>
			<path style="fill:#428DFF;" d="M11.776,188.416c-0.484-0.247-1.001-0.419-1.536-0.512c-0.564-0.095-1.135-0.152-1.707-0.171
				c-2.259,0.033-4.422,0.917-6.059,2.475c-0.771,0.816-1.38,1.772-1.792,2.816c-1.287,3.183-0.586,6.825,1.792,9.301
				c0.816,0.771,1.772,1.38,2.816,1.792c1.026,0.437,2.128,0.669,3.243,0.683c2.259-0.033,4.422-0.917,6.059-2.475
				c3.3-3.365,3.3-8.752,0-12.117l-1.28-1.024C12.836,188.861,12.32,188.603,11.776,188.416z"/>
			<path style="fill:#428DFF;" d="M477.867,0H34.133C15.282,0,0,15.282,0,34.133V76.8c0,4.713,3.821,8.533,8.533,8.533H230.4
				c4.713,0,8.533-3.82,8.533-8.533c0-4.713-3.821-8.533-8.533-8.533H17.067V34.133c0-9.426,7.641-17.067,17.067-17.067h443.733
				c9.426,0,17.067,7.641,17.067,17.067v34.133H281.6c-4.713,0-8.533,3.821-8.533,8.533c0,4.713,3.82,8.533,8.533,8.533h221.867
				c4.713,0,8.533-3.82,8.533-8.533V34.133C512,15.282,496.718,0,477.867,0z"/>
			<path style="fill:#428DFF;" d="M503.467,102.4c-4.713,0-8.533,3.821-8.533,8.533v366.933c0,9.426-7.641,17.067-17.067,17.067
				H34.133c-9.426,0-17.067-7.641-17.067-17.067V230.4c0-4.713-3.821-8.533-8.533-8.533S0,225.687,0,230.4v247.467
				C0,496.718,15.282,512,34.133,512h443.733C496.718,512,512,496.718,512,477.867V110.933C512,106.221,508.18,102.4,503.467,102.4z
				"/>
			<path style="fill:#428DFF;" d="M42.667,34.133c-4.713,0-8.533,3.821-8.533,8.533s3.821,8.533,8.533,8.533H51.2
				c4.713,0,8.533-3.821,8.533-8.533s-3.821-8.533-8.533-8.533H42.667z"/>
			<path style="fill:#428DFF;" d="M85.333,34.133c-4.713,0-8.533,3.821-8.533,8.533s3.821,8.533,8.533,8.533h8.533
				c4.713,0,8.533-3.821,8.533-8.533s-3.821-8.533-8.533-8.533H85.333z"/>
			<path style="fill:#428DFF;" d="M128,34.133c-4.713,0-8.533,3.821-8.533,8.533S123.287,51.2,128,51.2h8.533
				c4.713,0,8.533-3.821,8.533-8.533s-3.821-8.533-8.533-8.533H128z"/>
			<path style="fill:#428DFF;" d="M97.109,196.267c-11.189-0.014-20.276,9.035-20.309,20.224v232.619
				c0.033,11.189,9.12,20.238,20.309,20.224h317.781c11.189,0.014,20.276-9.035,20.309-20.224V216.491
				c-0.033-11.189-9.12-20.238-20.309-20.224H298.667V179.2h25.6c3.556,0,6.739-2.205,7.989-5.535
				c1.25-3.329,0.304-7.084-2.374-9.424l-68.267-59.733c-3.216-2.81-8.014-2.81-11.23,0l-68.267,59.733
				c-2.678,2.34-3.624,6.095-2.374,9.424c1.25,3.329,4.433,5.535,7.989,5.535h25.6v17.067H97.109z M210.441,162.133L256,122.274
				l45.559,39.859h-11.426c-4.713,0-8.533,3.821-8.533,8.533v68.267c0,4.713,3.821,8.533,8.533,8.533
				c4.713,0,8.533-3.821,8.533-8.533v-25.6h116.224c0.849-0.011,1.667,0.315,2.275,0.907c0.608,0.592,0.956,1.402,0.967,2.25
				v232.619c-0.011,0.849-0.359,1.658-0.967,2.25c-0.608,0.592-1.427,0.918-2.275,0.907H97.109
				c-0.849,0.011-1.667-0.315-2.275-0.907c-0.608-0.592-0.956-1.402-0.967-2.25V216.491c0.011-0.849,0.359-1.658,0.967-2.25
				c0.608-0.592,1.427-0.918,2.275-0.907h116.224v25.6c0,4.713,3.821,8.533,8.533,8.533c4.713,0,8.533-3.821,8.533-8.533v-68.267
				c0-4.713-3.821-8.533-8.533-8.533H210.441z"/>
			<path style="fill:#428DFF;" d="M112.759,233.66c-2.889,3.699-2.248,9.036,1.434,11.947l125.355,98.628
				c9.691,7.485,23.213,7.485,32.905,0l125.355-98.594c2.455-1.865,3.713-4.908,3.292-7.962c-0.421-3.054-2.457-5.643-5.325-6.773
				c-2.868-1.13-6.123-0.625-8.514,1.32L261.897,330.82c-3.486,2.646-8.307,2.646-11.793,0L124.74,232.226
				C121.036,229.314,115.672,229.956,112.759,233.66z"/>
			<path style="fill:#428DFF;" d="M190.601,352.026l-76.8,68.267c-2.396,1.992-3.516,5.132-2.921,8.19
				c0.595,3.059,2.809,5.55,5.777,6.499s6.217,0.205,8.476-1.941l76.8-68.267c2.396-1.992,3.516-5.132,2.921-8.19
				c-0.595-3.059-2.809-5.55-5.777-6.499C196.109,349.135,192.86,349.88,190.601,352.026z"/>
			<path style="fill:#428DFF;" d="M321.4,352.026c-3.54-2.942-8.775-2.547-11.833,0.893c-3.058,3.44-2.836,8.686,0.501,11.856
				l76.8,68.267c2.259,2.146,5.509,2.89,8.477,1.941c2.968-0.949,5.183-3.441,5.777-6.499c0.595-3.059-0.525-6.198-2.921-8.19
				L321.4,352.026z"/>
		</g>
	</g>
</g>
<g>
</g>
<g>
</g>
<g>
</g>
<g>
</g>
<g>
</g>
<g>
</g>
<g>
</g>
<g>
</g>
<g>
</g>
<g>
</g>
<g>
</g>
<g>
</g>
<g>
</g>
<g>
</g>
<g>
</g>
</svg>
