<?xml version="1.0" encoding="iso-8859-1"?>
<!-- Generator: Adobe Illustrator 19.0.0, SVG Export Plug-In . SVG Version: 6.00 Build 0)  -->
<svg version="1.1" id="Capa_1" xmlns="http://www.w3.org/2000/svg" xmlns:xlink="http://www.w3.org/1999/xlink" x="0px" y="0px"
	 viewBox="0 0 512 512" style="enable-background:new 0 0 512 512;" xml:space="preserve">
<g>
	<g transform="translate(1 1)">
		<path style="fill:#A4C2F7;" d="M502.467,75.8v401.067c0,14.138-11.462,25.6-25.6,25.6H33.133c-14.138,0-25.6-11.462-25.6-25.6
			V75.8l8.533-17.067h477.867L502.467,75.8z"/>
		<path style="fill:#D4E1F4;" d="M476.867,75.8v401.067c0,14.138-11.462,25.6-25.6,25.6H33.133c-14.138,0-25.6-11.462-25.6-25.6
			V75.8l8.533-17.067h452.267L476.867,75.8z"/>
		<path style="fill:#A4C2F7;" d="M502.467,33.133V75.8H7.533V33.133c0-14.138,11.462-25.6,25.6-25.6h443.733
			C491.005,7.533,502.467,18.995,502.467,33.133z"/>
		<g>
			<path style="fill:#E3E7F2;" d="M476.867,33.133V75.8H7.533V33.133c0-14.138,11.462-25.6,25.6-25.6h418.133
				C465.405,7.533,476.867,18.995,476.867,33.133z"/>
			<path style="fill:#E3E7F2;" d="M255,417.133h34.133c9.426,0,17.067,7.641,17.067,17.067l0,0c0,9.426-7.641,17.067-17.067,17.067
				H255c-9.426,0-17.067-7.641-17.067-17.067l0,0C237.933,424.774,245.574,417.133,255,417.133z"/>
			<path style="fill:#E3E7F2;" d="M169.667,306.2v68.267c0,4.713-3.821,8.533-8.533,8.533h-32.427
				c-7.299-0.056-14.276-3.01-19.397-8.211c-5.121-5.201-7.966-12.223-7.909-19.522V299.8c-0.057-7.299,2.788-14.321,7.909-19.522
				s12.099-8.155,19.397-8.211h32.427c4.713,0,8.533,3.82,8.533,8.533V306.2z"/>
		</g>
		<path style="fill:#A4C2F7;" d="M408.6,299.8v55.467c0.109,15.195-12.112,27.607-27.307,27.733h-32.427
			c-4.713,0-8.533-3.821-8.533-8.533V280.6c0-4.713,3.821-8.533,8.533-8.533h32.427C396.488,272.193,408.709,284.605,408.6,299.8z"
			/>
		<path style="fill:#E3E7F2;" d="M383,299.8v55.467c0.109,15.195-12.112,27.607-27.307,27.733h-6.827
			c-4.713,0-8.533-3.821-8.533-8.533V280.6c0-4.713,3.821-8.533,8.533-8.533h6.827C370.888,272.193,383.109,284.605,383,299.8z"/>
		<path style="fill:#FFFFFF;" d="M33.133,502.467h25.6c-14.138,0-25.6-11.462-25.6-25.6V33.133c0-14.138,11.462-25.6,25.6-25.6
			h-25.6c-14.138,0-25.6,11.462-25.6,25.6v443.733C7.533,491.005,18.995,502.467,33.133,502.467z"/>
	</g>
	<g>
		<polygon style="fill:#FFFFFF;" points="17.067,136.533 17.067,247.467 17.067,477.867 0,477.867 0,247.467 0,136.533 		"/>
		<g>
			<path style="fill:#428DFF;" d="M8.533,179.2c4.713,0,8.533-3.821,8.533-8.533v-59.733c0-4.713-3.821-8.533-8.533-8.533
				S0,106.221,0,110.933v59.733C0,175.38,3.821,179.2,8.533,179.2z"/>
			<path style="fill:#428DFF;" d="M11.776,196.949c-0.484-0.247-1.001-0.419-1.536-0.512c-0.564-0.095-1.135-0.152-1.707-0.171
				c-2.259,0.033-4.422,0.917-6.059,2.475c-0.771,0.816-1.38,1.772-1.792,2.816c-1.287,3.183-0.586,6.825,1.792,9.301
				c0.816,0.771,1.772,1.38,2.816,1.792c1.026,0.437,2.128,0.669,3.243,0.683c2.259-0.033,4.422-0.917,6.059-2.475
				c3.3-3.365,3.3-8.752,0-12.117l-1.28-1.024C12.836,197.394,12.32,197.136,11.776,196.949z"/>
			<path style="fill:#428DFF;" d="M503.467,102.4c-4.713,0-8.533,3.821-8.533,8.533v366.933c0,9.426-7.641,17.067-17.067,17.067
				H34.133c-9.426,0-17.067-7.641-17.067-17.067V238.933c0-4.713-3.821-8.533-8.533-8.533S0,234.221,0,238.933v238.933
				C0,496.718,15.282,512,34.133,512h443.733C496.718,512,512,496.718,512,477.867V110.933C512,106.221,508.18,102.4,503.467,102.4z
				"/>
			<path style="fill:#428DFF;" d="M477.867,0H34.133C15.282,0,0,15.282,0,34.133V76.8c0,4.713,3.821,8.533,8.533,8.533h384
				c4.713,0,8.533-3.82,8.533-8.533c0-4.713-3.82-8.533-8.533-8.533H17.067V34.133c0-9.426,7.641-17.067,17.067-17.067h443.733
				c9.426,0,17.067,7.641,17.067,17.067v34.133h-51.2c-4.713,0-8.533,3.821-8.533,8.533c0,4.713,3.821,8.533,8.533,8.533h59.733
				c4.713,0,8.533-3.82,8.533-8.533V34.133C512,15.282,496.718,0,477.867,0z"/>
			<path style="fill:#428DFF;" d="M42.667,34.133c-4.713,0-8.533,3.821-8.533,8.533s3.821,8.533,8.533,8.533H51.2
				c4.713,0,8.533-3.821,8.533-8.533s-3.821-8.533-8.533-8.533H42.667z"/>
			<path style="fill:#428DFF;" d="M85.333,34.133c-4.713,0-8.533,3.821-8.533,8.533s3.821,8.533,8.533,8.533h8.533
				c4.713,0,8.533-3.821,8.533-8.533s-3.821-8.533-8.533-8.533H85.333z"/>
			<path style="fill:#428DFF;" d="M128,34.133c-4.713,0-8.533,3.821-8.533,8.533S123.287,51.2,128,51.2h8.533
				c4.713,0,8.533-3.821,8.533-8.533s-3.821-8.533-8.533-8.533H128z"/>
			<path style="fill:#428DFF;" d="M256,119.467c-70.659,0.08-127.92,57.341-128,128v17.246
				c-19.175,1.014-34.187,16.885-34.133,36.087v55.467c-0.095,19.902,15.938,36.126,35.84,36.267h32.427
				c9.426,0,17.067-7.641,17.067-17.067V307.2c0-4.713-3.821-8.533-8.533-8.533c-4.713,0-8.533,3.82-8.533,8.533v68.267h-32.427
				c-10.48-0.131-18.878-8.719-18.773-19.2V300.8c-0.104-10.481,8.293-19.069,18.773-19.2h40.96c4.713,0,8.533-3.82,8.533-8.533
				s-3.821-8.533-8.533-8.533h-25.6v-17.067c0-61.267,49.667-110.933,110.933-110.933S366.933,186.2,366.933,247.467v17.067h-25.6
				c-4.713,0-8.533,3.82-8.533,8.533s3.82,8.533,8.533,8.533h40.96c10.48,0.131,18.878,8.719,18.773,19.2v55.467
				c0.104,10.481-8.293,19.069-18.773,19.2h-32.427V307.2c0-4.713-3.821-8.533-8.533-8.533s-8.533,3.82-8.533,8.533v68.267
				c0,9.426,7.641,17.067,17.067,17.067h17.067v8.533c0,14.138-11.462,25.6-25.6,25.6h-27.17
				c-3.603-10.192-13.22-17.022-24.03-17.067H256c-14.138,0-25.6,11.462-25.6,25.6c0,14.138,11.462,25.6,25.6,25.6h34.133
				c10.81-0.045,20.427-6.875,24.03-17.067h27.17c23.552-0.028,42.638-19.114,42.667-42.667v-8.713
				c19.175-1.014,34.187-16.885,34.133-36.087V300.8c0.054-19.202-14.958-35.074-34.133-36.087v-17.246
				C383.92,176.807,326.659,119.547,256,119.467z M290.133,443.733H256c-4.713,0-8.533-3.821-8.533-8.533s3.821-8.533,8.533-8.533
				h34.133c4.713,0,8.533,3.82,8.533,8.533S294.846,443.733,290.133,443.733z"/>
		</g>
	</g>
</g>
<g>
</g>
<g>
</g>
<g>
</g>
<g>
</g>
<g>
</g>
<g>
</g>
<g>
</g>
<g>
</g>
<g>
</g>
<g>
</g>
<g>
</g>
<g>
</g>
<g>
</g>
<g>
</g>
<g>
</g>
</svg>
