<svg width="32" height="32" viewBox="0 0 32 32" fill="none" xmlns="http://www.w3.org/2000/svg">
<path d="M12 5.33334H6.66668C5.9303 5.33334 5.33334 5.9303 5.33334 6.66668V12C5.33334 12.7364 5.9303 13.3333 6.66668 13.3333H12C12.7364 13.3333 13.3333 12.7364 13.3333 12V6.66668C13.3333 5.9303 12.7364 5.33334 12 5.33334Z" stroke="#17433E" stroke-width="2" stroke-linecap="round" stroke-linejoin="round"/>
<path d="M25.3333 5.33334H20C19.2636 5.33334 18.6667 5.9303 18.6667 6.66668V12C18.6667 12.7364 19.2636 13.3333 20 13.3333H25.3333C26.0697 13.3333 26.6667 12.7364 26.6667 12V6.66668C26.6667 5.9303 26.0697 5.33334 25.3333 5.33334Z" stroke="#17433E" stroke-width="2" stroke-linecap="round" stroke-linejoin="round"/>
<path d="M12 18.6667H6.66668C5.9303 18.6667 5.33334 19.2636 5.33334 20V25.3333C5.33334 26.0697 5.9303 26.6667 6.66668 26.6667H12C12.7364 26.6667 13.3333 26.0697 13.3333 25.3333V20C13.3333 19.2636 12.7364 18.6667 12 18.6667Z" stroke="#17433E" stroke-width="2" stroke-linecap="round" stroke-linejoin="round"/>
<path d="M25.3333 18.6667H20C19.2636 18.6667 18.6667 19.2636 18.6667 20V25.3333C18.6667 26.0697 19.2636 26.6667 20 26.6667H25.3333C26.0697 26.6667 26.6667 26.0697 26.6667 25.3333V20C26.6667 19.2636 26.0697 18.6667 25.3333 18.6667Z" stroke="#17433E" stroke-width="2" stroke-linecap="round" stroke-linejoin="round"/>
</svg>
